<?xml version="1.0" encoding="UTF-8" standalone="no"?>
<!-- Created with Inkscape (http://www.inkscape.org/) -->

<svg
   xmlns:dc="http://purl.org/dc/elements/1.1/"
   xmlns:cc="http://creativecommons.org/ns#"
   xmlns:rdf="http://www.w3.org/1999/02/22-rdf-syntax-ns#"
   xmlns:svg="http://www.w3.org/2000/svg"
   xmlns="http://www.w3.org/2000/svg"
   xmlns:xlink="http://www.w3.org/1999/xlink"
   xmlns:sodipodi="http://sodipodi.sourceforge.net/DTD/sodipodi-0.dtd"
   xmlns:inkscape="http://www.inkscape.org/namespaces/inkscape"
   width="1000"
   height="196"
   viewBox="0 0 264.58333 51.858336"
   version="1.1"
   id="svg8"
   inkscape:version="0.92.2 5c3e80d, 2017-08-06"
   sodipodi:docname="InstallerNextcloud.svg">
  <defs
     id="defs2">
    <filter
       inkscape:label="Fill Background"
       style="color-interpolation-filters:sRGB"
       id="filter5174"
       inkscape:menu="Fill and Transparency"
       inkscape:menu-tooltip="Adds a colorizable opaque background">
      <feColorMatrix
         values="1 0 0 0 0 0 1 0 0 0 0 0 1 0 0 -1 0.5 0.5 1 0 "
         in="SourceGraphic"
         result="colormatrix"
         id="feColorMatrix5170" />
      <feComposite
         in="colormatrix"
         in2="SourceGraphic"
         operator="in"
         result="fbSourceGraphic"
         id="feComposite5172" />
      <feColorMatrix
         result="fbSourceGraphicAlpha"
         in="fbSourceGraphic"
         values="0 0 0 -1 0 0 0 0 -1 0 0 0 0 -1 0 0 0 0 1 0"
         id="feColorMatrix5176" />
      <feColorMatrix
         id="feColorMatrix5178"
         values="1 0 0 0 0 0 1 0 0 0 0 0 1 0 0 -1 0.5 0.5 1 0 "
         in="fbSourceGraphic"
         result="colormatrix" />
      <feComposite
         in2="fbSourceGraphic"
         id="feComposite5180"
         in="colormatrix"
         operator="in"
         result="fbSourceGraphic" />
      <feColorMatrix
         result="fbSourceGraphicAlpha"
         in="fbSourceGraphic"
         values="0 0 0 -1 0 0 0 0 -1 0 0 0 0 -1 0 0 0 0 1 0"
         id="feColorMatrix5188" />
      <feFlood
         id="feFlood5190"
         result="result1"
         flood-color="rgb(200,55,55)"
         flood-opacity="1"
         in="fbSourceGraphic" />
      <feImage
         id="feImage5192"
         xlink:href=""
         result="result2" />
      <feBlend
         in2="result1"
         id="feBlend5194"
         result="result4"
         mode="multiply" />
      <feMerge
         id="feMerge5196"
         result="result3">
        <feMergeNode
           id="feMergeNode5198"
           in="result1" />
        <feMergeNode
           id="feMergeNode5200"
           in="fbSourceGraphic" />
      </feMerge>
    </filter>
  </defs>
  <sodipodi:namedview
     id="base"
     pagecolor="#ffffff"
     bordercolor="#666666"
     borderopacity="1.0"
     inkscape:pageopacity="0.0"
     inkscape:pageshadow="2"
     inkscape:zoom="1.314"
     inkscape:cx="591.3242"
     inkscape:cy="65.954367"
     inkscape:document-units="mm"
     inkscape:current-layer="layer2"
     showgrid="true"
     units="px"
     inkscape:snap-grids="true"
     inkscape:window-width="1920"
     inkscape:window-height="1016"
     inkscape:window-x="0"
     inkscape:window-y="27"
     inkscape:window-maximized="1">
    <inkscape:grid
       type="xygrid"
       id="grid1366" />
  </sodipodi:namedview>
  <metadata
     id="metadata5">
    <rdf:RDF>
      <cc:Work
         rdf:about="">
        <dc:format>image/svg+xml</dc:format>
        <dc:type
           rdf:resource="http://purl.org/dc/dcmitype/StillImage" />
        <dc:title></dc:title>
      </cc:Work>
    </rdf:RDF>
  </metadata>
  <g
     inkscape:label="Layer 1"
     inkscape:groupmode="layer"
     id="layer1"
     transform="translate(0,-245.14163)"
     style="display:inline">
    <text
       xml:space="preserve"
       style="font-style:normal;font-weight:normal;font-size:10.58333302px;line-height:1.25;font-family:sans-serif;letter-spacing:0px;word-spacing:0px;fill:#dadfe0;fill-opacity:0;stroke:none;stroke-width:0.26458332"
       x="66.145836"
       y="270.54166"
       id="text1370"
       inkscape:export-xdpi="96"
       inkscape:export-ydpi="96"><tspan
         sodipodi:role="line"
         id="tspan1368"
         x="66.145836"
         y="279.90543"
         style="fill:#dadfe0;fill-opacity:0;stroke-width:0.26458332" /></text>
    <rect
       style="fill:#ffdead;fill-opacity:0.94117647;stroke:none;stroke-width:0.09644196;stroke-miterlimit:4;stroke-dasharray:none;stroke-opacity:1"
       id="rect1372"
       width="264.58334"
       height="52.916676"
       x="0"
       y="244.08331"
       inkscape:export-xdpi="96"
       inkscape:export-ydpi="96" />
    <path
       style="fill:#ffdead;fill-opacity:0.94117647;stroke:none;stroke-width:0.35888255;stroke-miterlimit:4;stroke-dasharray:none;stroke-opacity:1"
       d="M 0.46691678,99.948546 V -0.05655615 H 499.98735 999.50778 V 99.948546 199.95365 H 499.98735 0.46691678 Z"
       id="path1374"
       inkscape:connector-curvature="0"
       transform="matrix(0.26458333,0,0,0.26458333,0,244.08331)"
       inkscape:export-xdpi="96"
       inkscape:export-ydpi="96" />
    <path
       style="fill:#ffdead;fill-opacity:0.94117647;stroke:none;stroke-width:0.35888255;stroke-miterlimit:4;stroke-dasharray:none;stroke-opacity:1"
       d="M 0.46691678,99.948546 V -0.05655615 H 499.98735 999.50778 V 99.948546 199.95365 H 499.98735 0.46691678 Z"
       id="path1376"
       inkscape:connector-curvature="0"
       transform="matrix(0.26458333,0,0,0.26458333,0,244.08331)"
       inkscape:export-xdpi="96"
       inkscape:export-ydpi="96" />
    <path
       style="fill:#ffdead;fill-opacity:0.94117647;stroke:none;stroke-width:0.35888255;stroke-miterlimit:4;stroke-dasharray:none;stroke-opacity:1"
       d="M 0.46691678,99.948546 V -0.05655615 H 499.98735 999.50778 V 99.948546 199.95365 H 499.98735 0.46691678 Z"
       id="path1378"
       inkscape:connector-curvature="0"
       transform="matrix(0.26458333,0,0,0.26458333,0,244.08331)"
       inkscape:export-xdpi="96"
       inkscape:export-ydpi="96" />
    <path
       style="fill:#ffdead;fill-opacity:0.94117647;stroke:none;stroke-width:0.35888255;stroke-miterlimit:4;stroke-dasharray:none;stroke-opacity:1"
       d="M 0.46691678,99.948546 V -0.05655615 H 499.98735 999.50778 V 99.948546 199.95365 H 499.98735 0.46691678 Z"
       id="path1380"
       inkscape:connector-curvature="0"
       transform="matrix(0.26458333,0,0,0.26458333,0,244.08331)"
       inkscape:export-xdpi="96"
       inkscape:export-ydpi="96" />
    <path
       style="fill:#7f1a00;fill-opacity:0;stroke:none;stroke-width:0.3552756;stroke-miterlimit:4;stroke-dasharray:none;stroke-opacity:1"
       d="M 0.46691678,99.948546 V -0.05655615 H 499.98735 999.50778 V 99.948546 199.95365 H 499.98735 0.46691678 Z"
       id="path1382"
       inkscape:connector-curvature="0"
       transform="matrix(0.26458333,0,0,0.26458333,0,244.08331)"
       inkscape:export-xdpi="96"
       inkscape:export-ydpi="96" />
    <path
       style="fill:#7f1a00;fill-opacity:0;stroke:none;stroke-width:0.3552756;stroke-miterlimit:4;stroke-dasharray:none;stroke-opacity:1"
       d="M 0.46691678,99.948546 V -0.05655615 H 499.98735 999.50778 V 99.948546 199.95365 H 499.98735 0.46691678 Z"
       id="path1384"
       inkscape:connector-curvature="0"
       transform="matrix(0.26458333,0,0,0.26458333,0,244.08331)"
       inkscape:export-xdpi="96"
       inkscape:export-ydpi="96" />
    <path
       style="fill:#7f1a00;fill-opacity:0;stroke:none;stroke-width:0.3552756;stroke-miterlimit:4;stroke-dasharray:none;stroke-opacity:1"
       d="M -0.54323576,99.948546 V -0.05655615 H 499.98735 1000.5179 V 99.948546 199.95365 H 499.98735 -0.54323576 Z"
       id="path1386"
       inkscape:connector-curvature="0"
       transform="matrix(0.26458333,0,0,0.26458333,0,244.08331)"
       inkscape:export-xdpi="96"
       inkscape:export-ydpi="96" />
    <path
       style="fill:#7f1a00;fill-opacity:0;stroke:none;stroke-width:0.3552756;stroke-miterlimit:4;stroke-dasharray:none;stroke-opacity:1"
       d="M -0.54323576,99.948546 V -0.05655615 H 499.98735 1000.5179 V 99.948546 199.95365 H 499.98735 -0.54323576 Z"
       id="path1388"
       inkscape:connector-curvature="0"
       transform="matrix(0.26458333,0,0,0.26458333,0,244.08331)"
       inkscape:export-xdpi="96"
       inkscape:export-ydpi="96" />
    <path
       style="fill:#00657f;fill-opacity:0;stroke:none;stroke-width:0.35888255;stroke-miterlimit:4;stroke-dasharray:none;stroke-opacity:1"
       d="M -0.54323576,99.948546 V -0.05655615 H 499.98735 1000.5179 V 99.948546 199.95365 H 499.98735 -0.54323576 Z"
       id="path1390"
       inkscape:connector-curvature="0"
       transform="matrix(0.26458333,0,0,0.26458333,0,244.08331)"
       inkscape:export-xdpi="96"
       inkscape:export-ydpi="96" />
    <path
       style="fill:#00657f;fill-opacity:1;stroke:none;stroke-width:0.09495434;stroke-miterlimit:4;stroke-dasharray:none;stroke-opacity:1"
       d="m -0.28060667,244.08331 v 26.45988 26.45937 H 132.15161 264.58333 V 270.54319 244.08331 H 132.15161 Z"
       id="path1392"
       inkscape:connector-curvature="0"
       inkscape:export-xdpi="96"
       inkscape:export-ydpi="96" />
    <path
       style="fill:#dadfe1;fill-opacity:0;stroke:none;stroke-width:0.35888255;stroke-miterlimit:4;stroke-dasharray:none;stroke-opacity:1"
       d="M -0.54323576,99.948546 V -0.05655615 H 499.98735 1000.5179 V 99.948546 199.95365 H 499.98735 -0.54323576 Z"
       id="path1414"
       inkscape:connector-curvature="0"
       transform="matrix(0.26458333,0,0,0.26458333,0,244.08331)"
       inkscape:export-xdpi="96"
       inkscape:export-ydpi="96" />
    <flowRoot
       xml:space="preserve"
       id="flowRoot1418"
       style="font-style:normal;font-weight:normal;font-size:40px;line-height:1.25;font-family:sans-serif;letter-spacing:0px;word-spacing:0px;fill:#dadfe0;fill-opacity:0;stroke:none"
       transform="matrix(0.26458333,0,0,0.26458333,0,244.08331)"
       inkscape:export-xdpi="96"
       inkscape:export-ydpi="96"><flowRegion
         id="flowRegion1420"
         style="fill:#dadfe0;fill-opacity:0"><rect
           id="rect1422"
           width="260"
           height="70"
           x="200"
           y="50"
           style="fill:#dadfe0;fill-opacity:0" /></flowRegion><flowPara
         id="flowPara1424" /></flowRoot>    <text
       xml:space="preserve"
       style="font-style:normal;font-weight:normal;font-size:10.58333302px;line-height:1.25;font-family:sans-serif;letter-spacing:0px;word-spacing:0px;fill:#dadfe1;fill-opacity:0.81568627;stroke:none;stroke-width:0.26458332"
       x="95.25"
       y="270.54166"
       id="text1428"
       inkscape:export-xdpi="96"
       inkscape:export-ydpi="96"><tspan
         sodipodi:role="line"
         id="tspan1426"
         x="95.25"
         y="279.90543"
         style="fill:#dadfe1;fill-opacity:0.81568627;stroke-width:0.26458332" /></text>
    <flowRoot
       xml:space="preserve"
       id="flowRoot1430"
       style="font-style:normal;font-weight:normal;font-size:40px;line-height:1.25;font-family:sans-serif;letter-spacing:0px;word-spacing:0px;fill:#dadfe1;fill-opacity:0;stroke:none"
       transform="matrix(0.26458333,0,0,0.26458333,0,244.08331)"
       inkscape:export-xdpi="96"
       inkscape:export-ydpi="96"><flowRegion
         id="flowRegion1432"
         style="fill:#dadfe1;fill-opacity:0"><rect
           id="rect1434"
           width="240"
           height="90"
           x="190"
           y="70"
           style="fill:#dadfe1;fill-opacity:0" /></flowRegion><flowPara
         id="flowPara1436" /></flowRoot>    <text
       xml:space="preserve"
       style="font-style:normal;font-weight:normal;font-size:10.58333302px;line-height:1.25;font-family:sans-serif;letter-spacing:0px;word-spacing:0px;fill:#dadfe1;fill-opacity:0;stroke:none;stroke-width:0.26458332"
       x="76.729164"
       y="273.18747"
       id="text1440"
       inkscape:export-xdpi="96"
       inkscape:export-ydpi="96"><tspan
         sodipodi:role="line"
         id="tspan1438"
         x="76.729164"
         y="282.55124"
         style="fill:#dadfe1;fill-opacity:0;stroke-width:0.26458332" /></text>
    <flowRoot
       xml:space="preserve"
       id="flowRoot1443"
       style="font-style:normal;font-weight:normal;font-size:40px;line-height:1.25;font-family:sans-serif;letter-spacing:0px;word-spacing:0px;fill:#dadfe0;fill-opacity:0;stroke:none"
       transform="matrix(0.26458333,0,0,0.26458333,0,244.08331)"
       inkscape:export-xdpi="96"
       inkscape:export-ydpi="96"><flowRegion
         id="flowRegion1445"
         style="fill:#dadfe0;fill-opacity:0"><rect
           id="rect1447"
           width="480"
           height="150"
           x="90"
           y="10"
           style="fill:#dadfe0;fill-opacity:0" /></flowRegion><flowPara
         id="flowPara1449" /></flowRoot>    <text
       xml:space="preserve"
       style="font-style:normal;font-weight:normal;font-size:10.58333302px;line-height:1.25;font-family:sans-serif;letter-spacing:0px;word-spacing:0px;fill:none;fill-opacity:1;stroke:none;stroke-width:0.26458332"
       x="39.338299"
       y="276.23489"
       id="text1453"
       inkscape:export-xdpi="96"
       inkscape:export-ydpi="96"><tspan
         sodipodi:role="line"
         id="tspan1451"
         x="39.338299"
         y="285.59866"
         style="fill:none;fill-opacity:0;stroke-width:0.26458332" /></text>
    <flowRoot
       xml:space="preserve"
       id="flowRoot1455"
       style="font-style:normal;font-weight:normal;font-size:40px;line-height:1.25;font-family:sans-serif;letter-spacing:0px;word-spacing:0px;fill:#ff2f00;fill-opacity:0;stroke:none"
       transform="matrix(0.26458333,0,0,0.26458333,0,244.08331)"
       inkscape:export-xdpi="96"
       inkscape:export-ydpi="96"><flowRegion
         id="flowRegion1457"
         style="fill:#ff2f00;fill-opacity:0"><rect
           id="rect1459"
           width="450"
           height="150"
           x="100"
           y="30"
           style="fill:#ff2f00;fill-opacity:0" /></flowRegion><flowPara
         id="flowPara1461"
         style="fill:#ff2f00;fill-opacity:0" /></flowRoot>  </g>
  <g
     inkscape:groupmode="layer"
     id="layer2"
     inkscape:label="Layer 2"
     style="display:inline"
     transform="translate(0,-1.0583333)">
    <text
       xml:space="preserve"
       style="font-style:normal;font-weight:normal;font-size:32.09540558px;line-height:1.25;font-family:sans-serif;letter-spacing:0px;word-spacing:0px;fill:#dadfee;fill-opacity:0.87843137;stroke:none;stroke-width:0.80238509"
       x="109.82596"
       y="20.505352"
       id="text1465"
       transform="matrix(0.80577568,0.06540724,0,1.2410402,0,0)"><tspan
         sodipodi:role="line"
         id="tspan1463"
         x="109.82596"
         y="20.505352"
         style="font-style:normal;font-variant:normal;font-weight:bold;font-stretch:normal;font-size:32.09526062px;font-family:'Autobus Bold';-inkscape-font-specification:'Autobus Bold, Bold';font-variant-ligatures:normal;font-variant-caps:normal;font-variant-numeric:normal;font-feature-settings:normal;text-align:start;writing-mode:lr-tb;text-anchor:start;fill:#dadfee;fill-opacity:0.87843137;stroke-width:0.80238509">Installer Nextcloud</tspan></text>
  </g>
  <g
     inkscape:groupmode="layer"
     id="layer3"
     inkscape:label="Layer 3"
     transform="translate(0,-1.0583333)">
    <g
       id="g5289"
       style="fill:#f5f5f5">
      <path
         style="fill:#f5f5f5;stroke-width:0.26458332"
         d="m 45.905208,41.655719 c -0.291041,-0.06674 -1.18401,-0.249383 -1.984375,-0.405873 -0.800364,-0.156491 -2.458053,-0.763995 -3.683754,-1.35001 -3.492759,-1.66991 -6.277732,-4.717156 -8.125233,-8.890421 -0.01927,-0.04352 -0.724628,0.643845 -1.56747,1.527477 -0.995789,1.043982 -2.139767,1.90559 -3.266699,2.460376 -1.636047,0.805424 -1.89939,0.853773 -4.650239,0.853773 -2.617541,0 -3.072529,-0.07335 -4.445595,-0.716748 -2.250741,-1.054655 -4.424862,-3.253674 -5.509213,-5.572307 -0.819464,-1.752232 -0.894663,-2.124298 -0.894663,-4.42657 0,-2.302271 0.0752,-2.674337 0.894663,-4.426569 1.084351,-2.318633 3.258472,-4.517653 5.509213,-5.572307 1.373066,-0.643392 1.828054,-0.716748 4.445595,-0.716748 2.752645,0 3.012001,0.04771 4.630209,0.851687 1.72281,0.855952 2.698196,1.637031 4.04907,3.242454 0.401288,0.476903 0.754487,0.822381 0.784886,0.767728 0.0304,-0.05465 0.471991,-0.932207 0.981314,-1.950119 1.365763,-2.729562 4.25564,-5.548224 7.152706,-6.976447 5.038233,-2.4837955 10.037093,-2.4318659 15.204146,0.157945 2.45858,1.232282 5.724623,4.510398 6.981598,7.00741 l 0.8949,1.777742 0.742214,-0.933956 c 1.038559,-1.306855 2.510229,-2.442805 4.214019,-3.252706 1.295479,-0.615811 1.774666,-0.691738 4.365625,-0.691738 2.608059,0 3.06854,0.0741 4.432469,0.713286 4.469128,2.094387 7.1677,7.134101 6.310654,11.785451 -0.643234,3.490968 -3.12861,6.728012 -6.310654,8.219225 -1.36448,0.639445 -1.823931,0.713287 -4.438033,0.713287 -2.762039,0 -3.006476,-0.04541 -4.630209,-0.860112 -1.807038,-0.906682 -2.512427,-1.458614 -3.868994,-3.027291 l -0.83185,-0.961917 -0.887521,1.763202 c -1.818452,3.612647 -6.164929,7.147806 -10.272704,8.35519 -1.467498,0.431337 -5.25857,0.75747 -6.226075,0.535606 z m 5.745769,-7.852944 c 1.907712,-0.873379 3.75489,-2.715158 4.660246,-4.646618 0.610246,-1.301883 0.706485,-1.849602 0.706485,-4.020741 0,-2.171138 -0.09624,-2.718857 -0.706485,-4.02074 -0.901234,-1.922668 -2.742813,-3.764248 -4.665482,-4.665482 -1.31589,-0.616812 -1.826245,-0.704078 -4.020741,-0.687519 -3.059229,0.02308 -4.386961,0.5363 -6.460223,2.497104 -2.063726,1.951785 -2.915571,3.958818 -2.918653,6.876637 -0.0021,1.905472 0.10999,2.49142 0.733327,3.836459 1.190734,2.56936 3.278047,4.434128 5.90023,5.271151 1.9261,0.614828 4.887224,0.422304 6.771296,-0.440251 z M 24.270055,28.584572 c 2.952123,-1.340107 2.952123,-5.558204 0,-6.898311 -1.400414,-0.635714 -1.895946,-0.635714 -3.29636,0 -2.900119,1.3165 -2.948738,5.376827 -0.08169,6.822593 1.431293,0.721759 1.930254,0.732943 3.378055,0.07572 z m 50.068368,-0.07572 c 4.420291,-2.266611 1.279062,-8.864842 -3.263651,-6.855384 -3.044703,1.346817 -3.102425,5.565812 -0.09483,6.931102 1.448256,0.657431 1.950802,0.646101 3.358478,-0.07572 z"
         id="path5303"
         inkscape:connector-curvature="0" />
      <path
         style="fill:#f5f5f5;stroke-width:0.26458332"
         d="m 43.713276,41.005482 c -4.479208,-1.173549 -8.46178,-4.28721 -10.484678,-8.197149 -0.564664,-1.091406 -1.062539,-2.027707 -1.106389,-2.080669 -0.04385,-0.05296 -0.751721,0.62954 -1.573047,1.51667 -4.44001,4.79574 -11.398559,4.813028 -15.818191,0.0393 -2.035812,-2.19892 -2.671717,-3.900295 -2.671717,-7.148217 0,-3.247921 0.635905,-4.949296 2.671717,-7.148215 4.419632,-4.77373 11.378181,-4.756443 15.818191,0.0393 0.821326,0.88713 1.529197,1.569631 1.573047,1.51667 0.04385,-0.05296 0.541725,-0.989263 1.106389,-2.080669 3.278774,-6.337352 10.821701,-9.8437795 17.934119,-8.3369072 4.430901,0.9387532 9.094452,4.5189352 11.03199,8.4691982 0.499631,1.018646 0.931908,1.895416 0.960615,1.948378 0.02871,0.05296 0.708316,-0.612394 1.510239,-1.478568 4.482079,-4.841179 11.411728,-4.875011 15.853468,-0.0774 3.993864,4.313851 3.716322,10.876505 -0.631994,14.943846 -4.429046,4.142854 -10.989527,3.846192 -15.186197,-0.686713 -0.821325,-0.88713 -1.516809,-1.569631 -1.545516,-1.51667 -0.02871,0.05296 -0.460984,0.929732 -0.960615,1.948378 -1.2817,2.613138 -4.458322,5.743432 -7.195531,7.090592 -3.602697,1.773121 -7.580223,2.209734 -11.2859,1.238848 z m 7.351307,-6.736207 c 4.039145,-1.422466 6.6742,-5.687761 6.259224,-10.131646 -0.760962,-8.148959 -10.933154,-11.692908 -16.541445,-5.762968 -1.609688,1.702007 -2.289109,3.004597 -2.67385,5.126321 -0.541552,2.986469 0.367387,5.936332 2.547223,8.266753 1.308637,1.39904 3.047571,2.447996 4.785373,2.886623 1.313124,0.331438 4.138216,0.137982 5.623475,-0.385083 z M 24.870967,28.508854 c 3.351849,-2.287936 1.803608,-7.342188 -2.249092,-7.342188 -0.993151,0 -1.620047,0.165934 -2.249092,0.595313 -3.351849,2.287936 -1.803608,7.342187 2.249092,7.342187 0.993151,0 1.620047,-0.165933 2.249092,-0.595312 z m 50.006251,0 c 2.415882,-1.649055 2.415882,-5.09782 0,-6.746875 -1.203441,-0.821456 -3.294745,-0.821456 -4.498186,0 -3.351848,2.287936 -1.803607,7.342187 2.249093,7.342187 0.993151,0 1.620046,-0.165933 2.249093,-0.595312 z"
         id="path5301"
         inkscape:connector-curvature="0" />
      <path
         style="fill:#f5f5f5;stroke-width:0.26458332"
         d="m 45.905208,41.265872 c -0.873125,-0.09931 -2.123281,-0.327499 -2.778125,-0.507093 -3.883369,-1.065035 -8.103901,-4.588327 -9.919979,-8.281175 -0.554626,-1.127786 -1.093174,-2.050521 -1.196774,-2.050521 -0.103599,0 -0.522736,0.482501 -0.931415,1.072225 -0.950451,1.371501 -2.321475,2.452282 -4.267126,3.363779 -1.359593,0.636942 -1.860206,0.723371 -4.189914,0.723371 -2.429385,0 -2.792482,-0.06946 -4.438456,-0.849122 -4.309553,-2.041334 -6.837061,-6.74435 -6.044048,-11.246357 0.624135,-3.543273 2.818434,-6.429436 6.05318,-7.961754 1.63573,-0.774855 2.002695,-0.84485 4.429324,-0.84485 2.339595,0 2.827437,0.08505 4.214848,0.734786 1.909199,0.894098 3.616524,2.256567 4.384149,3.49861 0.314758,0.509288 0.663532,0.925979 0.775054,0.925979 0.111522,0 0.656552,-0.922735 1.211178,-2.050521 1.891666,-3.846554 6.094472,-7.264609 10.341249,-8.4103223 2.508303,-0.676701 6.407198,-0.5704065 8.971439,0.2445864 4.409572,1.4014939 8.144105,4.6804849 9.930672,8.7193159 0.294489,0.665742 0.64094,1.275644 0.769887,1.355338 0.12895,0.0797 0.49244,-0.272532 0.807757,-0.782727 0.768581,-1.243588 2.475146,-2.605774 4.38517,-3.500259 1.387409,-0.649739 1.875253,-0.734786 4.214847,-0.734786 2.429386,0 2.792481,0.06946 4.438454,0.849123 8.170924,3.870373 8.15915,15.338408 -0.01971,19.213067 -1.623846,0.769281 -1.995334,0.839893 -4.41873,0.839893 -2.339594,0 -2.827438,-0.08505 -4.214847,-0.734785 -1.910024,-0.894485 -3.616589,-2.256671 -4.385169,-3.50026 -0.315318,-0.510195 -0.674513,-0.865077 -0.798211,-0.788628 -0.123698,0.07645 -0.512956,0.761801 -0.865021,1.523003 -1.461984,3.16098 -4.603771,6.316104 -7.728418,7.761229 -2.599384,1.202193 -5.908403,1.739919 -8.73125,1.418855 z m 6.000216,-7.229864 c 1.978289,-0.946687 4.218993,-3.355494 4.957559,-5.329492 0.388657,-1.038776 0.5516,-2.093688 0.5516,-3.5711 0,-1.477411 -0.162943,-2.532323 -0.5516,-3.571099 -0.732211,-1.957012 -2.975288,-4.375713 -4.957559,-5.345723 -1.336045,-0.653782 -1.795105,-0.735432 -4.148132,-0.737803 -2.315377,-0.0023 -2.833373,0.08525 -4.147384,0.701233 -2.102281,0.985513 -3.762893,2.61131 -4.782322,4.682064 -0.787604,1.599851 -0.859878,1.958394 -0.859878,4.265765 0,2.168929 0.09692,2.725805 0.697222,4.006066 1.228096,2.619158 3.382958,4.526031 6.125335,5.420408 1.840497,0.600247 5.302575,0.34707 7.115159,-0.520319 z m -27.448855,-5.20027 c 1.643894,-0.814536 2.134056,-1.664447 2.134056,-3.700322 0,-2.035874 -0.490162,-2.885785 -2.134056,-3.700321 -1.359309,-0.673526 -2.310079,-0.673526 -3.669388,0 -1.656139,0.820604 -2.134056,1.660204 -2.134056,3.749094 0,1.601273 0.07508,1.848338 0.79375,2.61191 1.508617,1.602878 3.175029,1.9487 5.009694,1.039639 z m 49.701409,0.168723 c 0.468267,-0.200358 1.208584,-0.743958 1.645147,-1.207998 0.723249,-0.76877 0.79375,-1.005366 0.79375,-2.663724 0,-1.71435 -0.05266,-1.874342 -0.906968,-2.755768 -1.567156,-1.616896 -3.525004,-1.866544 -5.425712,-0.691841 -1.228082,0.758996 -1.825189,2.120033 -1.682891,3.835964 0.136406,1.644878 0.760606,2.586851 2.194738,3.312061 1.2398,0.626942 2.203016,0.675732 3.381936,0.171306 z"
         id="path5299"
         inkscape:connector-curvature="0" />
      <path
         style="fill:#f5f5f5;stroke-width:0.26458332"
         d="m 43.754852,40.769267 c -4.906002,-1.332571 -8.604025,-4.416359 -10.750669,-8.965004 -0.432308,-0.91604 -0.877845,-1.630415 -0.990083,-1.5875 -0.112238,0.04292 -0.607966,0.610373 -1.101617,1.261017 -3.432379,4.523955 -10.091368,5.448377 -14.580821,2.024158 -4.30159,-3.280932 -5.415715,-9.43172 -2.531357,-13.974952 3.720917,-5.860921 12.007907,-6.508725 16.649052,-1.301478 0.715354,0.802609 1.300643,1.554585 1.300643,1.671057 0,0.650288 0.577901,0.02059 1.171961,-1.277012 2.580685,-5.636958 7.691099,-9.1738541 13.776997,-9.5350037 3.012633,-0.1787758 5.564902,0.338523 8.29868,1.6819927 2.799451,1.375742 5.658089,4.23008 7.043145,7.032552 0.555787,1.124561 1.070309,2.044656 1.143381,2.044656 0.07307,0 0.75964,-0.692616 1.525707,-1.539147 4.782865,-5.285239 12.988758,-4.686024 16.739825,1.222383 3.343695,5.26675 1.2652,12.476511 -4.336127,15.040882 -4.363384,1.997623 -9.21689,0.987835 -12.347736,-2.568991 -0.760952,-0.864486 -1.455912,-1.571794 -1.544352,-1.571794 -0.08844,0 -0.611434,0.887816 -1.162206,1.972924 -1.885516,3.714763 -5.225987,6.622545 -9.192813,8.002069 -2.674792,0.930203 -6.475005,1.083347 -9.11161,0.367191 z m 6.39163,-5.989743 c 2.921376,-0.760923 5.391801,-2.841696 6.700443,-5.643605 0.595895,-1.275861 0.694878,-1.844592 0.69722,-4.006066 0.0024,-2.314043 -0.06779,-2.662346 -0.863545,-4.278761 -1.784763,-3.625365 -4.94515,-5.585079 -9.0556,-5.615258 -1.993768,-0.01464 -2.450132,0.07846 -4.021855,0.82049 -3.145221,1.48489 -5.138636,4.099682 -5.783069,7.585735 -0.733303,3.966803 1.572982,8.464726 5.311651,10.359251 2.353802,1.192763 4.506362,1.431565 7.014755,0.778214 z M 24.873524,28.773437 c 1.502387,-1.022516 1.981684,-1.90242 1.981684,-3.638021 0,-1.156939 -0.140011,-1.737657 -0.553494,-2.295702 -1.946856,-2.627511 -5.412822,-2.627511 -7.359678,0 -0.776767,1.04834 -0.776767,3.543065 0,4.591405 0.973251,1.313516 2.158534,1.937631 3.679839,1.937631 0.992394,0 1.621241,-0.166261 2.251649,-0.595313 z m 49.738439,0.198716 c 0.421812,-0.218128 1.098526,-0.831337 1.503804,-1.362685 0.606909,-0.795698 0.736873,-1.23205 0.736873,-2.474052 0,-2.543964 -1.717786,-4.233333 -4.304541,-4.233333 -1.435936,0 -2.647206,0.651977 -3.599812,1.937631 -0.413483,0.558045 -0.553495,1.138763 -0.553495,2.295702 0,1.735601 0.479298,2.615505 1.981684,3.638021 1.042329,0.709404 3.064462,0.804276 4.235487,0.198716 z"
         id="path5297"
         inkscape:connector-curvature="0" />
      <path
         style="fill:#f5f5f5;stroke-width:0.26458332"
         d="M 45.388541,40.990935 C 40.14157,40.193148 35.608403,36.869756 33.320925,32.143832 l -1.128237,-2.330935 -0.638463,0.770114 c -1.711154,2.063995 -2.991885,3.162188 -4.566725,3.915843 -1.570984,0.751808 -1.949208,0.823021 -4.371188,0.823021 -2.447238,0 -2.78361,-0.06509 -4.368428,-0.845291 -7.959347,-3.918374 -7.954444,-14.88034 0.0084,-18.70219 1.572018,-0.75451 1.947135,-0.825436 4.365625,-0.825436 2.407407,0 2.801036,0.07355 4.368125,0.816212 1.582292,0.749864 2.852447,1.83942 4.554723,3.907104 l 0.621217,0.754566 1.146042,-2.312811 c 2.029747,-4.096197 5.712509,-7.154408 10.211976,-8.480147 2.460435,-0.7249507 6.317398,-0.6161157 9.01658,0.2544281 4.049146,1.3059369 7.635703,4.4027199 9.523992,8.2234149 0.542726,1.098134 1.080336,1.996608 1.194683,1.996608 0.114348,0 0.571746,-0.506015 1.016439,-1.124479 1.031989,-1.435252 2.292223,-2.434525 4.19516,-3.32645 1.323229,-0.62021 1.841013,-0.708446 4.157313,-0.708446 2.41849,0 2.793606,0.07093 4.365625,0.825436 7.933574,3.807818 7.961516,14.786867 0.04755,18.682902 -1.629158,0.802031 -1.948029,0.864579 -4.407609,0.864579 -2.335943,0 -2.835158,-0.08609 -4.195905,-0.723567 -1.81784,-0.851601 -2.871419,-1.692629 -4.106751,-3.278233 -0.496022,-0.636666 -0.996685,-1.157575 -1.112586,-1.157575 -0.1159,0 -0.640651,0.893848 -1.166114,1.986327 -1.132239,2.354027 -3.531124,5.05029 -5.807665,6.527615 -2.912427,1.889972 -7.381626,2.842789 -10.856163,2.314493 z m 6.548493,-6.705298 c 1.945095,-0.930582 3.888364,-2.866289 4.856204,-4.837309 0.683163,-1.391266 0.753637,-1.794573 0.753637,-4.312912 0,-2.539071 -0.06702,-2.914727 -0.778843,-4.365625 -0.964467,-1.965855 -2.834265,-3.823275 -4.839486,-4.807454 -1.365581,-0.670237 -1.802662,-0.748694 -4.171254,-0.748742 -2.316965,-4.7e-5 -2.833884,0.08808 -4.15874,0.709045 -2.112589,0.99017 -4.005013,2.848133 -5.037838,4.946098 -0.786017,1.596624 -0.857361,1.952251 -0.854858,4.261115 0.0024,2.167516 0.100589,2.728675 0.703897,4.020654 1.235668,2.646171 3.628832,4.772992 6.380512,5.670403 1.856346,0.605414 5.301914,0.34735 7.146769,-0.535273 z m -26.838126,-5.52278 c 1.362394,-0.90159 1.980137,-2.255357 1.833889,-4.018919 -0.142212,-1.714887 -0.967421,-2.936859 -2.432663,-3.602292 -1.371556,-0.622886 -2.384962,-0.622886 -3.756518,0 -1.67339,0.759962 -2.355074,1.915973 -2.355074,3.99377 0,2.067109 0.592583,3.080443 2.312523,3.954476 1.419938,0.72158 2.98967,0.60485 4.397843,-0.327035 z m 50.006249,0 c 2.514227,-1.663836 2.531684,-5.579493 0.03225,-7.233542 -2.036596,-1.347755 -4.598522,-0.965929 -6.019559,0.897148 -0.618323,0.810662 -0.723053,1.200056 -0.723053,2.688358 0,1.413588 0.11929,1.907642 0.635283,2.631114 1.356677,1.902193 4.054853,2.353846 6.075082,1.016922 z"
         id="path5295"
         inkscape:connector-curvature="0" />
      <path
         style="fill:#f5f5f5;stroke-width:0.26458332"
         d="m 43.82992,40.592007 c -4.335783,-1.049713 -8.705138,-4.658749 -10.515833,-8.685956 -0.496446,-1.104156 -1.035264,-2.007687 -1.197374,-2.007846 -0.16211,-1.59e-4 -0.628121,0.480772 -1.035579,1.068734 -1.069085,1.54269 -2.371919,2.599814 -4.345685,3.526105 -1.534874,0.72032 -2.00669,0.813199 -4.139463,0.814893 -2.250133,0.0019 -2.538069,-0.0628 -4.414488,-0.990174 -2.301711,-1.137569 -3.85585,-2.699852 -4.923208,-4.949013 -0.608146,-1.281498 -0.690582,-1.786837 -0.690582,-4.233334 0,-2.446496 0.08244,-2.951835 0.690582,-4.233333 1.066445,-2.247235 2.621783,-3.811587 4.917879,-4.946379 1.862808,-0.92065 2.169772,-0.99005 4.414488,-0.998061 2.159409,-0.0077 2.594182,0.0775 4.144792,0.81226 1.977861,0.937216 3.279893,1.996052 4.345685,3.533991 0.407458,0.587962 0.87674,1.069022 1.042848,1.069022 0.166109,0 0.647087,-0.792087 1.06884,-1.760194 1.925959,-4.420913 6.093154,-7.847574 10.930724,-8.9882685 2.34147,-0.5521161 6.450968,-0.360204 8.617337,0.4024265 4.085696,1.438295 7.357761,4.318459 9.177721,8.078488 0.603655,1.247152 1.190228,2.267549 1.303494,2.267549 0.113262,0 0.53931,-0.481061 0.946769,-1.069023 1.066326,-1.538711 2.368491,-2.597273 4.345683,-3.532712 1.538584,-0.727927 2.000176,-0.819736 4.127296,-0.820906 2.238055,-0.0012 2.527292,0.06408 4.414489,0.996781 2.298086,1.135776 3.755376,2.601223 4.895572,4.922973 0.656653,1.337126 0.730385,1.767706 0.730385,4.265386 0,2.498432 -0.0736,2.927934 -0.731047,4.266139 -1.138867,2.318116 -2.597562,3.78681 -4.882742,4.916208 -1.87642,0.927377 -2.164355,0.99196 -4.414489,0.990174 -2.132774,-0.0016 -2.60459,-0.09457 -4.139464,-0.814893 -1.973765,-0.926291 -3.2766,-1.983415 -4.345683,-3.526105 -0.407459,-0.587962 -0.833507,-1.069023 -0.946769,-1.069023 -0.113266,0 -0.702832,1.026584 -1.310148,2.281296 -1.980237,4.091162 -5.757908,7.169547 -10.188864,8.302795 -2.420188,0.618979 -5.607394,0.663397 -7.893166,0.11 z m 7.234663,-5.858671 c 2.578637,-0.873398 5.127657,-3.310643 6.123337,-5.854834 0.821867,-2.100059 0.815896,-5.400754 -0.0136,-7.522547 -1.674238,-4.28254 -6.581298,-7.064391 -11.079509,-6.281062 -3.343245,0.582201 -6.287082,2.791797 -7.68043,5.764804 -0.630436,1.345146 -0.711256,1.833281 -0.711256,4.295719 0,2.462439 0.08082,2.950574 0.711245,4.29572 1.31609,2.80816 4.272986,5.10449 7.40519,5.750883 1.391957,0.287258 3.639979,0.09495 5.245023,-0.448683 z M 24.428664,29.272435 c 1.914988,-0.800133 3.160918,-3.290116 2.593668,-5.183428 -0.371516,-1.240011 -1.392829,-2.525487 -2.434459,-3.064135 -0.961842,-0.497388 -2.970154,-0.497388 -3.931996,0 -1.856336,0.959948 -2.979244,3.338624 -2.434459,5.156954 0.829984,2.770239 3.633358,4.166048 6.207246,3.090609 z m 50.00625,0 c 1.914988,-0.800133 3.160919,-3.290116 2.593668,-5.183428 -0.638106,-2.129809 -2.375625,-3.451507 -4.537389,-3.451507 -2.783748,0 -5.044017,2.939276 -4.263525,5.544326 0.829984,2.770239 3.633358,4.166048 6.207246,3.090609 z"
         id="path5293"
         inkscape:connector-curvature="0" />
      <path
         style="fill:#f5f5f5;stroke-width:0.26458332"
         d="m 43.65625,40.327088 c -4.599924,-1.213578 -8.84999,-4.955874 -10.550124,-9.289664 -0.274407,-0.69949 -0.676473,-1.307344 -0.893478,-1.350789 -0.224479,-0.04494 -0.806348,0.494197 -1.349865,1.250733 -2.476396,3.446961 -6.992192,5.0148 -11.037157,3.831988 -4.339212,-1.268854 -7.197212,-5.094474 -7.197212,-9.63394 0,-4.500077 2.676496,-8.187666 6.912477,-9.523781 4.215803,-1.329752 8.763996,0.161425 11.312664,3.708986 1.07065,1.490267 1.582756,1.643297 1.971975,0.589275 0.719047,-1.947212 1.847629,-3.774224 3.290095,-5.326191 3.186406,-3.428292 6.866633,-5.0587052 11.418697,-5.0587052 1.44725,0 3.222781,0.1792888 4.15353,0.4194136 4.28431,1.1053126 7.940336,4.0952016 9.99287,8.1721486 0.651698,1.294468 1.312876,2.396235 1.469287,2.448372 0.156411,0.05214 0.713714,-0.502803 1.238451,-1.233199 2.475124,-3.445193 6.991824,-5.012814 11.035914,-3.830259 6.843247,2.001074 9.463527,10.316948 5.021501,15.936531 -4.059431,5.135567 -12.190958,4.882916 -16.057415,-0.498909 -0.524737,-0.730396 -1.08204,-1.285335 -1.238451,-1.233199 -0.156411,0.05214 -0.817589,1.153904 -1.469287,2.448371 -2.052534,4.076949 -5.70856,7.066836 -9.99287,8.172151 -2.01898,0.520877 -6.058533,0.521213 -8.031602,7.94e-4 z m 8.259781,-5.726877 c 6.735321,-3.100899 8.200435,-11.977655 2.80924,-17.020486 -1.909069,-1.785709 -3.846608,-2.598306 -6.479712,-2.717565 -2.678126,-0.121298 -4.477126,0.36333 -6.440474,1.734986 -5.969244,4.170293 -5.96995,12.905753 -0.0013,17.075576 2.032886,1.420233 3.381422,1.788736 6.218174,1.699188 1.906444,-0.06018 2.682912,-0.214053 3.894156,-0.771699 z m -27.657735,-4.98371 c 1.76213,-0.665779 3.054845,-2.562034 3.054845,-4.481085 0,-4.124421 -4.86098,-6.292113 -7.823741,-3.488896 -1.09815,1.039014 -1.497733,1.969825 -1.497733,3.488896 0,1.518568 0.399073,2.448632 1.497733,3.490558 1.288318,1.22179 3.139269,1.606243 4.768896,0.990527 z m 50.00625,0 c 0.91245,-0.344747 2.119371,-1.458125 2.620534,-2.417424 0.205288,-0.392956 0.373253,-1.321603 0.373253,-2.063661 0,-1.519071 -0.399584,-2.449882 -1.497732,-3.488896 -2.962762,-2.803217 -7.823742,-0.635525 -7.823742,3.488896 0,1.40171 0.472961,2.460801 1.55879,3.490558 1.28832,1.22179 3.13927,1.606243 4.768897,0.990527 z"
         id="path5291"
         inkscape:connector-curvature="0" />
    </g>
    <path
       style="fill:none;fill-opacity:0.87843137;stroke:none;stroke-width:0.3552756;stroke-miterlimit:4;stroke-dasharray:none;stroke-opacity:1"
       d="M 0.23076388,95.170332 V 5.6703315 H 179.73076 h 179.5 V 95.170332 184.67033 h -179.5 H 0.23076388 Z m 329.99999612,-0.5 v -75 h -150 -149.999996 v 75 74.999998 h 149.999996 150 z"
       id="path5202"
       inkscape:connector-curvature="0"
       transform="scale(0.26458333)" />
    <path
       style="fill:none;fill-opacity:0.87843137;stroke:none;stroke-width:0.3552756;stroke-miterlimit:4;stroke-dasharray:none;stroke-opacity:1"
       d="m 30.230764,95.170332 v -74.5 h 149.499996 149.5 v 74.5 74.499998 h -149.5 H 30.230764 Z M 199.44527,153.00709 c 15.21043,-4.73466 29.23708,-16.86974 36.11156,-31.24171 1.73502,-3.62728 3.28179,-6.7929 3.43726,-7.03472 0.15547,-0.24181 1.02357,0.65819 1.92911,2 3.49071,5.1725 10.8645,11.30698 17.19906,14.30842 6.03395,2.85902 7.47791,3.13125 16.6085,3.13125 8.80519,0 10.69728,-0.32666 15.83589,-2.734 12.71399,-5.95625 20.30391,-15.26535 23.25271,-28.51966 1.43117,-6.432813 1.50973,-8.613944 0.51052,-14.174515 -2.49199,-13.867892 -10.54256,-24.576673 -22.78179,-30.304102 -16.44059,-7.693478 -36.88332,-3.025801 -47.77257,10.907885 -2.22462,2.846584 -4.26976,5.196986 -4.54476,5.223116 -0.275,0.02613 -1.79057,-2.842177 -3.36794,-6.374017 -9.14223,-20.470133 -31.34929,-34.604024 -54.63206,-34.77108 -17.9397,-0.128719 -30.84906,5.122637 -43.59799,17.735081 -6.221,6.1544 -9.02473,9.87917 -12.09628,16.069971 l -3.99829,8.058676 -4.42849,-5.558676 C 102.36469,51.220932 74.168941,49.636917 57.42963,66.376228 37.710094,86.095764 43.588356,118.94429 68.990012,130.9772 c 6.182287,2.92858 7.569242,3.19313 16.740752,3.19313 8.805195,0 10.697276,-0.32666 15.835896,-2.734 7.51678,-3.52146 12.94247,-7.8568 16.73936,-13.37538 l 3.03231,-4.40731 4.11095,8.25835 c 7.17446,14.4125 21.4509,26.6483 36.95463,31.67241 10.67053,3.45786 24.78478,3.23789 37.04136,-0.57731 z"
       id="path5204"
       inkscape:connector-curvature="0"
       transform="scale(0.26458333)" />
    <path
       style="fill:none;fill-opacity:0.87843137;stroke:none;stroke-width:0.3552756;stroke-miterlimit:4;stroke-dasharray:none;stroke-opacity:1"
       d="M 0.23076388,95.170332 V 5.6703315 H 179.73076 h 179.5 V 95.170332 184.67033 h -179.5 H 0.23076388 Z m 329.99999612,-0.5 v -75 h -150 -149.999996 v 75 74.999998 h 149.999996 150 z"
       id="path5206"
       inkscape:connector-curvature="0"
       transform="scale(0.26458333)" />
    <path
       style="fill:none;fill-opacity:0.87843137;stroke:none;stroke-width:0.3552756;stroke-miterlimit:4;stroke-dasharray:none;stroke-opacity:1"
       d="M 0.23076388,95.170332 V 5.6703315 H 179.73076 h 179.5 V 95.170332 184.67033 h -179.5 H 0.23076388 Z m 329.99999612,-0.5 v -75 h -150 -149.999996 v 75 74.999998 h 149.999996 150 z"
       id="path5208"
       inkscape:connector-curvature="0"
       transform="scale(0.26458333)" />
    <path
       style="fill:none;fill-opacity:0.87843137;stroke:none;stroke-width:0.3552756;stroke-miterlimit:4;stroke-dasharray:none;stroke-opacity:1"
       d="M 0.23076388,95.170332 V 5.6703315 H 179.73076 h 179.5 V 95.170332 184.67033 h -179.5 H 0.23076388 Z m 329.99999612,-0.5 v -75 h -150 -149.999996 v 75 74.999998 h 149.999996 150 z"
       id="path5210"
       inkscape:connector-curvature="0"
       transform="scale(0.26458333)" />
    <path
       style="fill:none;fill-opacity:0.87843137;stroke:none;stroke-width:0.3552756;stroke-miterlimit:4;stroke-dasharray:none;stroke-opacity:1"
       d="M 0.23076388,95.170332 V 5.6703315 H 179.73076 h 179.5 V 95.170332 184.67033 h -179.5 H 0.23076388 Z m 329.99999612,-0.5 v -75 h -150 -149.999996 v 75 74.999998 h 149.999996 150 z"
       id="path5212"
       inkscape:connector-curvature="0"
       transform="scale(0.26458333)" />
    <path
       style="fill:none;fill-opacity:0.87843137;stroke:none;stroke-width:0.3552756;stroke-miterlimit:4;stroke-dasharray:none;stroke-opacity:1"
       d="M 0.23076388,95.170332 V 5.6703315 H 179.73076 h 179.5 V 95.170332 184.67033 h -179.5 H 0.23076388 Z m 329.99999612,-0.5 v -75 h -150 -149.999996 v 75 74.999998 h 149.999996 150 z"
       id="path5214"
       inkscape:connector-curvature="0"
       transform="scale(0.26458333)" />
    <path
       style="fill:none;fill-opacity:0.87843137;stroke:none;stroke-width:0.3552756;stroke-miterlimit:4;stroke-dasharray:none;stroke-opacity:1"
       d="m 30.230764,95.170332 v -74.5 h 149.499996 149.5 v 74.5 74.499998 h -149.5 H 30.230764 Z M 199.44527,153.00709 c 15.21043,-4.73466 29.23708,-16.86974 36.11156,-31.24171 1.73502,-3.62728 3.28179,-6.7929 3.43726,-7.03472 0.15547,-0.24181 1.02357,0.65819 1.92911,2 3.49071,5.1725 10.8645,11.30698 17.19906,14.30842 6.03395,2.85902 7.47791,3.13125 16.6085,3.13125 8.80519,0 10.69728,-0.32666 15.83589,-2.734 12.71399,-5.95625 20.30391,-15.26535 23.25271,-28.51966 1.43117,-6.432813 1.50973,-8.613944 0.51052,-14.174515 -2.49199,-13.867892 -10.54256,-24.576673 -22.78179,-30.304102 -16.44059,-7.693478 -36.88332,-3.025801 -47.77257,10.907885 -2.22462,2.846584 -4.26976,5.196986 -4.54476,5.223116 -0.275,0.02613 -1.79057,-2.842177 -3.36794,-6.374017 -9.14223,-20.470133 -31.34929,-34.604024 -54.63206,-34.77108 -17.9397,-0.128719 -30.84906,5.122637 -43.59799,17.735081 -6.221,6.1544 -9.02473,9.87917 -12.09628,16.069971 l -3.99829,8.058676 -4.42849,-5.558676 C 102.36469,51.220932 74.168941,49.636917 57.42963,66.376228 37.710094,86.095764 43.588356,118.94429 68.990012,130.9772 c 6.182287,2.92858 7.569242,3.19313 16.740752,3.19313 8.805195,0 10.697276,-0.32666 15.835896,-2.734 7.51678,-3.52146 12.94247,-7.8568 16.73936,-13.37538 l 3.03231,-4.40731 4.11095,8.25835 c 7.17446,14.4125 21.4509,26.6483 36.95463,31.67241 10.67053,3.45786 24.78478,3.23789 37.04136,-0.57731 z"
       id="path5216"
       inkscape:connector-curvature="0"
       transform="scale(0.26458333)" />
    <path
       style="fill:none;fill-opacity:0.87843137;stroke:none;stroke-width:0.3552756;stroke-miterlimit:4;stroke-dasharray:none;stroke-opacity:1"
       d="m 30.230764,95.170332 v -74.5 h 149.499996 149.5 v 74.5 74.499998 h -149.5 H 30.230764 Z M 199.44527,153.00709 c 15.21043,-4.73466 29.23708,-16.86974 36.11156,-31.24171 1.73502,-3.62728 3.28179,-6.7929 3.43726,-7.03472 0.15547,-0.24181 1.02357,0.65819 1.92911,2 3.49071,5.1725 10.8645,11.30698 17.19906,14.30842 6.03395,2.85902 7.47791,3.13125 16.6085,3.13125 8.80519,0 10.69728,-0.32666 15.83589,-2.734 12.71399,-5.95625 20.30391,-15.26535 23.25271,-28.51966 1.43117,-6.432813 1.50973,-8.613944 0.51052,-14.174515 -2.49199,-13.867892 -10.54256,-24.576673 -22.78179,-30.304102 -16.44059,-7.693478 -36.88332,-3.025801 -47.77257,10.907885 -2.22462,2.846584 -4.26976,5.196986 -4.54476,5.223116 -0.275,0.02613 -1.79057,-2.842177 -3.36794,-6.374017 -9.14223,-20.470133 -31.34929,-34.604024 -54.63206,-34.77108 -17.9397,-0.128719 -30.84906,5.122637 -43.59799,17.735081 -6.221,6.1544 -9.02473,9.87917 -12.09628,16.069971 l -3.99829,8.058676 -4.42849,-5.558676 C 102.36469,51.220932 74.168941,49.636917 57.42963,66.376228 37.710094,86.095764 43.588356,118.94429 68.990012,130.9772 c 6.182287,2.92858 7.569242,3.19313 16.740752,3.19313 8.805195,0 10.697276,-0.32666 15.835896,-2.734 7.51678,-3.52146 12.94247,-7.8568 16.73936,-13.37538 l 3.03231,-4.40731 4.11095,8.25835 c 7.17446,14.4125 21.4509,26.6483 36.95463,31.67241 10.67053,3.45786 24.78478,3.23789 37.04136,-0.57731 z"
       id="path5218"
       inkscape:connector-curvature="0"
       transform="scale(0.26458333)" />
    <path
       style="fill:none;fill-opacity:0.87843137;stroke:none;stroke-width:0.3552756;stroke-miterlimit:4;stroke-dasharray:none;stroke-opacity:1"
       d="m 30.230764,95.170332 v -74.5 h 149.499996 149.5 v 74.5 74.499998 h -149.5 H 30.230764 Z M 199.44527,153.00709 c 15.21043,-4.73466 29.23708,-16.86974 36.11156,-31.24171 1.73502,-3.62728 3.28179,-6.7929 3.43726,-7.03472 0.15547,-0.24181 1.02357,0.65819 1.92911,2 3.49071,5.1725 10.8645,11.30698 17.19906,14.30842 6.03395,2.85902 7.47791,3.13125 16.6085,3.13125 8.80519,0 10.69728,-0.32666 15.83589,-2.734 12.71399,-5.95625 20.30391,-15.26535 23.25271,-28.51966 1.43117,-6.432813 1.50973,-8.613944 0.51052,-14.174515 -2.49199,-13.867892 -10.54256,-24.576673 -22.78179,-30.304102 -16.44059,-7.693478 -36.88332,-3.025801 -47.77257,10.907885 -2.22462,2.846584 -4.26976,5.196986 -4.54476,5.223116 -0.275,0.02613 -1.79057,-2.842177 -3.36794,-6.374017 -9.14223,-20.470133 -31.34929,-34.604024 -54.63206,-34.77108 -17.9397,-0.128719 -30.84906,5.122637 -43.59799,17.735081 -6.221,6.1544 -9.02473,9.87917 -12.09628,16.069971 l -3.99829,8.058676 -4.42849,-5.558676 C 102.36469,51.220932 74.168941,49.636917 57.42963,66.376228 37.710094,86.095764 43.588356,118.94429 68.990012,130.9772 c 6.182287,2.92858 7.569242,3.19313 16.740752,3.19313 8.805195,0 10.697276,-0.32666 15.835896,-2.734 7.51678,-3.52146 12.94247,-7.8568 16.73936,-13.37538 l 3.03231,-4.40731 4.11095,8.25835 c 7.17446,14.4125 21.4509,26.6483 36.95463,31.67241 10.67053,3.45786 24.78478,3.23789 37.04136,-0.57731 z"
       id="path5220"
       inkscape:connector-curvature="0"
       transform="scale(0.26458333)" />
    <path
       style="fill:none;fill-opacity:0.87843137;stroke:none;stroke-width:0.3552756;stroke-miterlimit:4;stroke-dasharray:none;stroke-opacity:1"
       d="m 30.230764,95.170332 v -74.5 h 149.499996 149.5 v 74.5 74.499998 h -149.5 H 30.230764 Z M 199.44527,153.00709 c 15.21043,-4.73466 29.23708,-16.86974 36.11156,-31.24171 1.73502,-3.62728 3.28179,-6.7929 3.43726,-7.03472 0.15547,-0.24181 1.02357,0.65819 1.92911,2 3.49071,5.1725 10.8645,11.30698 17.19906,14.30842 6.03395,2.85902 7.47791,3.13125 16.6085,3.13125 8.80519,0 10.69728,-0.32666 15.83589,-2.734 12.71399,-5.95625 20.30391,-15.26535 23.25271,-28.51966 1.43117,-6.432813 1.50973,-8.613944 0.51052,-14.174515 -2.49199,-13.867892 -10.54256,-24.576673 -22.78179,-30.304102 -16.44059,-7.693478 -36.88332,-3.025801 -47.77257,10.907885 -2.22462,2.846584 -4.26976,5.196986 -4.54476,5.223116 -0.275,0.02613 -1.79057,-2.842177 -3.36794,-6.374017 -9.14223,-20.470133 -31.34929,-34.604024 -54.63206,-34.77108 -17.9397,-0.128719 -30.84906,5.122637 -43.59799,17.735081 -6.221,6.1544 -9.02473,9.87917 -12.09628,16.069971 l -3.99829,8.058676 -4.42849,-5.558676 C 102.36469,51.220932 74.168941,49.636917 57.42963,66.376228 37.710094,86.095764 43.588356,118.94429 68.990012,130.9772 c 6.182287,2.92858 7.569242,3.19313 16.740752,3.19313 8.805195,0 10.697276,-0.32666 15.835896,-2.734 7.51678,-3.52146 12.94247,-7.8568 16.73936,-13.37538 l 3.03231,-4.40731 4.11095,8.25835 c 7.17446,14.4125 21.4509,26.6483 36.95463,31.67241 10.67053,3.45786 24.78478,3.23789 37.04136,-0.57731 z"
       id="path5222"
       inkscape:connector-curvature="0"
       transform="scale(0.26458333)" />
    <path
       style="fill:none;fill-opacity:0.87843137;stroke:none;stroke-width:0.3552756;stroke-miterlimit:4;stroke-dasharray:none;stroke-opacity:1"
       d="m 30.230764,95.170332 v -74.5 h 149.499996 149.5 v 74.5 74.499998 h -149.5 H 30.230764 Z M 199.44527,153.00709 c 15.21043,-4.73466 29.23708,-16.86974 36.11156,-31.24171 1.73502,-3.62728 3.28179,-6.7929 3.43726,-7.03472 0.15547,-0.24181 1.02357,0.65819 1.92911,2 3.49071,5.1725 10.8645,11.30698 17.19906,14.30842 6.03395,2.85902 7.47791,3.13125 16.6085,3.13125 8.80519,0 10.69728,-0.32666 15.83589,-2.734 12.71399,-5.95625 20.30391,-15.26535 23.25271,-28.51966 1.43117,-6.432813 1.50973,-8.613944 0.51052,-14.174515 -2.49199,-13.867892 -10.54256,-24.576673 -22.78179,-30.304102 -16.44059,-7.693478 -36.88332,-3.025801 -47.77257,10.907885 -2.22462,2.846584 -4.26976,5.196986 -4.54476,5.223116 -0.275,0.02613 -1.79057,-2.842177 -3.36794,-6.374017 -9.14223,-20.470133 -31.34929,-34.604024 -54.63206,-34.77108 -17.9397,-0.128719 -30.84906,5.122637 -43.59799,17.735081 -6.221,6.1544 -9.02473,9.87917 -12.09628,16.069971 l -3.99829,8.058676 -4.42849,-5.558676 C 102.36469,51.220932 74.168941,49.636917 57.42963,66.376228 37.710094,86.095764 43.588356,118.94429 68.990012,130.9772 c 6.182287,2.92858 7.569242,3.19313 16.740752,3.19313 8.805195,0 10.697276,-0.32666 15.835896,-2.734 7.51678,-3.52146 12.94247,-7.8568 16.73936,-13.37538 l 3.03231,-4.40731 4.11095,8.25835 c 7.17446,14.4125 21.4509,26.6483 36.95463,31.67241 10.67053,3.45786 24.78478,3.23789 37.04136,-0.57731 z"
       id="path5224"
       inkscape:connector-curvature="0"
       transform="scale(0.26458333)" />
    <path
       style="fill:none;fill-opacity:0.87843137;stroke:none;stroke-width:0.0888189;stroke-miterlimit:4;stroke-dasharray:none;stroke-opacity:1"
       d="m 30.015933,94.991501 v -74.875 h 149.874997 149.875 v 74.875 74.874999 H 179.89093 30.015933 Z M 183.01593,156.6165 c 0,-0.48148 0.16667,-0.5 4.5,-0.5 4.33334,0 4.5,-0.0185 4.5,-0.5 0,-0.45833 0.16667,-0.5 2,-0.5 1.83334,0 2,-0.0417 2,-0.5 0,-0.44444 0.16667,-0.5 1.5,-0.5 1.33334,0 1.5,-0.0556 1.5,-0.5 0,-0.44444 0.16667,-0.5 1.5,-0.5 1.33334,0 1.5,-0.0556 1.5,-0.5 0,-0.44444 0.16667,-0.5 1.5,-0.5 1.33334,0 1.5,-0.0556 1.5,-0.5 0,-0.41667 0.16667,-0.5 1,-0.5 0.83334,0 1,-0.0833 1,-0.5 0,-0.41667 0.16667,-0.5 1,-0.5 0.83334,0 1,-0.0833 1,-0.5 0,-0.41667 0.16667,-0.5 1,-0.5 0.83334,0 1,-0.0833 1,-0.5 0,-0.33333 0.16667,-0.5 0.5,-0.5 0.33334,0 0.5,-0.16667 0.5,-0.5 0,-0.41667 0.16667,-0.5 1,-0.5 0.83334,0 1,-0.0833 1,-0.5 0,-0.33333 0.16667,-0.5 0.5,-0.5 0.33334,0 0.5,-0.16667 0.5,-0.5 0,-0.41667 0.16667,-0.5 1,-0.5 0.83334,0 1,-0.0833 1,-0.5 0,-0.33333 0.16667,-0.5 0.5,-0.5 0.33334,0 0.5,-0.16667 0.5,-0.5 0,-0.33333 0.16667,-0.5 0.5,-0.5 0.33334,0 0.5,-0.16667 0.5,-0.5 0,-0.41667 0.16667,-0.5 1,-0.5 0.83334,0 1,-0.0833 1,-0.5 0,-0.33333 0.16667,-0.5 0.5,-0.5 0.33334,0 0.5,-0.16667 0.5,-0.5 0,-0.33333 0.16667,-0.5 0.5,-0.5 0.33334,0 0.5,-0.16667 0.5,-0.5 0,-0.33333 0.16667,-0.5 0.5,-0.5 0.33334,0 0.5,-0.16667 0.5,-0.5 0,-0.33333 0.16667,-0.5 0.5,-0.5 0.33334,0 0.5,-0.16667 0.5,-0.5 0,-0.33333 0.16667,-0.5 0.5,-0.5 0.33334,0 0.5,-0.16667 0.5,-0.5 0,-0.33333 0.16667,-0.5 0.5,-0.5 0.41667,0 0.5,-0.16667 0.5,-1 0,-0.83333 0.0833,-1 0.5,-1 0.33334,0 0.5,-0.16667 0.5,-0.5 0,-0.33333 0.16667,-0.5 0.5,-0.5 0.33334,0 0.5,-0.16667 0.5,-0.5 0,-0.33333 0.16667,-0.5 0.5,-0.5 0.33334,0 0.5,-0.16667 0.5,-0.5 0,-0.33333 0.16667,-0.5 0.5,-0.5 0.41667,0 0.5,-0.16667 0.5,-1 0,-0.83333 0.0833,-1 0.5,-1 0.33334,0 0.5,-0.16667 0.5,-0.5 0,-0.33333 0.16667,-0.5 0.5,-0.5 0.41667,0 0.5,-0.16667 0.5,-1 0,-0.83333 0.0833,-1 0.5,-1 0.41667,0 0.5,-0.16667 0.5,-1 0,-0.83333 0.0833,-1 0.5,-1 0.41667,0 0.5,-0.16667 0.5,-1 0,-0.83333 0.0833,-1 0.5,-1 0.41667,0 0.5,-0.16667 0.5,-1 0,-0.83333 0.0833,-1 0.5,-1 0.41667,0 0.5,-0.16667 0.5,-1 0,-0.83333 0.0833,-1 0.5,-1 0.44445,0 0.5,-0.16667 0.5,-1.5 v -1.5 h 1 1 v 1 c 0,0.83333 0.0833,1 0.5,1 0.33334,0 0.5,0.16667 0.5,0.5 0,0.33333 0.16667,0.5 0.5,0.5 0.33334,0 0.5,0.16667 0.5,0.5 0,0.33333 0.16667,0.5 0.5,0.5 0.41667,0 0.5,0.16667 0.5,1 0,0.83333 0.0833,1 0.5,1 0.33334,0 0.5,0.16667 0.5,0.5 0,0.33333 0.16667,0.5 0.5,0.5 0.33334,0 0.5,0.16667 0.5,0.5 0,0.33333 0.16667,0.5 0.5,0.5 0.33334,0 0.5,0.16667 0.5,0.5 0,0.33333 0.16667,0.5 0.5,0.5 0.33334,0 0.5,0.16667 0.5,0.5 0,0.33333 0.16667,0.5 0.5,0.5 0.33334,0 0.5,0.16667 0.5,0.5 0,0.41667 0.16667,0.5 1,0.5 0.83334,0 1,0.0833 1,0.5 0,0.33333 0.16667,0.5 0.5,0.5 0.33334,0 0.5,0.16667 0.5,0.5 0,0.33333 0.16667,0.5 0.5,0.5 0.33334,0 0.5,0.16667 0.5,0.5 0,0.41667 0.16667,0.5 1,0.5 0.83334,0 1,0.0833 1,0.5 0,0.41667 0.16667,0.5 1,0.5 0.83334,0 1,0.0833 1,0.5 0,0.41667 0.16667,0.5 1,0.5 0.83334,0 1,0.0833 1,0.5 0,0.41667 0.16667,0.5 1,0.5 0.83334,0 1,0.0833 1,0.5 0,0.44445 0.16667,0.5 1.5,0.5 1.33334,0 1.5,0.0556 1.5,0.5 0,0.45833 0.16667,0.5 2,0.5 1.83334,0 2,0.0417 2,0.5 0,0.48889 0.16667,0.5 7.5,0.5 7.33333,0 7.5,-0.0111 7.5,-0.5 0,-0.45833 0.16668,-0.5 2,-0.5 1.83333,0 2,-0.0417 2,-0.5 0,-0.44444 0.16668,-0.5 1.5,-0.5 1.33333,0 1.5,-0.0556 1.5,-0.5 0,-0.41667 0.16668,-0.5 1,-0.5 0.83333,0 1,-0.0833 1,-0.5 0,-0.41667 0.16668,-0.5 1,-0.5 0.83333,0 1,-0.0833 1,-0.5 0,-0.41667 0.16668,-0.5 1,-0.5 0.83333,0 1,-0.0833 1,-0.5 0,-0.41667 0.16668,-0.5 1,-0.5 0.83333,0 1,-0.0833 1,-0.5 0,-0.33333 0.16668,-0.5 0.5,-0.5 0.33333,0 0.5,-0.16667 0.5,-0.5 0,-0.33333 0.16668,-0.5 0.5,-0.5 0.33333,0 0.5,-0.16667 0.5,-0.5 0,-0.41667 0.16668,-0.5 1,-0.5 0.83333,0 1,-0.0833 1,-0.5 0,-0.33333 0.16668,-0.5 0.5,-0.5 0.33333,0 0.5,-0.16667 0.5,-0.5 0,-0.33333 0.16668,-0.5 0.5,-0.5 0.33333,0 0.5,-0.16667 0.5,-0.5 0,-0.33333 0.16668,-0.5 0.5,-0.5 0.33333,0 0.5,-0.16667 0.5,-0.5 0,-0.33333 0.16668,-0.5 0.5,-0.5 0.33333,0 0.5,-0.16667 0.5,-0.5 0,-0.33333 0.16668,-0.5 0.5,-0.5 0.41668,0 0.5,-0.16667 0.5,-1 0,-0.83333 0.0833,-1 0.5,-1 0.33333,0 0.5,-0.16667 0.5,-0.5 0,-0.33333 0.16668,-0.5 0.5,-0.5 0.41668,0 0.5,-0.16667 0.5,-1 0,-0.83333 0.0833,-1 0.5,-1 0.33333,0 0.5,-0.16667 0.5,-0.5 0,-0.33333 0.16668,-0.5 0.5,-0.5 0.41668,0 0.5,-0.16667 0.5,-1 0,-0.83333 0.0833,-1 0.5,-1 0.41668,0 0.5,-0.16667 0.5,-1 0,-0.83333 0.0833,-1 0.5,-1 0.44445,0 0.5,-0.16667 0.5,-1.5 0,-1.33333 0.0555,-1.5 0.5,-1.5 0.45833,0 0.5,-0.16667 0.5,-2 0,-1.83333 0.0417,-2 0.5,-2 0.46668,0 0.5,-0.16667 0.5,-2.5 0,-2.333332 0.0333,-2.499999 0.5,-2.499999 0.47918,0 0.5,-0.166668 0.5,-4 0,-3.833333 -0.0208,-4 -0.5,-4 -0.46667,0 -0.5,-0.166668 -0.5,-2.5 0,-2.333333 -0.0333,-2.5 -0.5,-2.5 -0.45832,0 -0.5,-0.166668 -0.5,-2 0,-1.833333 -0.0417,-2 -0.5,-2 -0.44445,0 -0.5,-0.166668 -0.5,-1.5 0,-1.333333 -0.0556,-1.5 -0.5,-1.5 -0.41667,0 -0.5,-0.166668 -0.5,-1 0,-0.833333 -0.0833,-1 -0.5,-1 -0.41667,0 -0.5,-0.166668 -0.5,-1 0,-0.833333 -0.0833,-1 -0.5,-1 -0.33332,0 -0.5,-0.166668 -0.5,-0.5 0,-0.333333 -0.16667,-0.5 -0.5,-0.5 -0.41667,0 -0.5,-0.166668 -0.5,-1 0,-0.833333 -0.0833,-1 -0.5,-1 -0.33332,0 -0.5,-0.166668 -0.5,-0.5 0,-0.333333 -0.16667,-0.5 -0.5,-0.5 -0.41667,0 -0.5,-0.166668 -0.5,-1 0,-0.833333 -0.0833,-1 -0.5,-1 -0.33332,0 -0.5,-0.166668 -0.5,-0.5 0,-0.333333 -0.16667,-0.5 -0.5,-0.5 -0.33332,0 -0.5,-0.166668 -0.5,-0.5 0,-0.333333 -0.16667,-0.5 -0.5,-0.5 -0.33332,0 -0.5,-0.166668 -0.5,-0.5 0,-0.333333 -0.16667,-0.5 -0.5,-0.5 -0.33332,0 -0.5,-0.166668 -0.5,-0.5 0,-0.333333 -0.16667,-0.5 -0.5,-0.5 -0.33332,0 -0.5,-0.166668 -0.5,-0.5 0,-0.416668 -0.16667,-0.5 -1,-0.5 -0.83332,0 -1,-0.08333 -1,-0.5 0,-0.333333 -0.16667,-0.5 -0.5,-0.5 -0.33332,0 -0.5,-0.166668 -0.5,-0.5 0,-0.333333 -0.16667,-0.5 -0.5,-0.5 -0.33332,0 -0.5,-0.166668 -0.5,-0.5 0,-0.416668 -0.16667,-0.5 -1,-0.5 -0.83332,0 -1,-0.08333 -1,-0.5 0,-0.416668 -0.16667,-0.5 -1,-0.5 -0.83332,0 -1,-0.08333 -1,-0.5 0,-0.416668 -0.16667,-0.5 -1,-0.5 -0.83332,0 -1,-0.08333 -1,-0.5 0,-0.416668 -0.16667,-0.5 -1,-0.5 -0.83332,0 -1,-0.08333 -1,-0.5 0,-0.444445 -0.16667,-0.5 -1.5,-0.5 -1.33332,0 -1.5,-0.05555 -1.5,-0.5 0,-0.458333 -0.16667,-0.5 -2,-0.5 -1.83332,0 -2,-0.04167 -2,-0.5 0,-0.48889 -0.16667,-0.5 -7.5,-0.5 -7.33333,0 -7.5,0.0111 -7.5,0.5 0,0.458332 -0.16666,0.5 -2,0.5 -1.83333,0 -2,0.04167 -2,0.5 0,0.444445 -0.16666,0.5 -1.5,0.5 -1.33333,0 -1.5,0.05555 -1.5,0.5 0,0.416667 -0.16666,0.5 -1,0.5 -0.83333,0 -1,0.08333 -1,0.5 0,0.416667 -0.16666,0.5 -1,0.5 -0.83333,0 -1,0.08333 -1,0.5 0,0.416667 -0.16666,0.5 -1,0.5 -0.83333,0 -1,0.08333 -1,0.5 0,0.416667 -0.16666,0.5 -1,0.5 -0.83333,0 -1,0.08333 -1,0.5 0,0.333332 -0.16666,0.5 -0.5,0.5 -0.33333,0 -0.5,0.166667 -0.5,0.5 0,0.416667 -0.16666,0.5 -1,0.5 -0.83333,0 -1,0.08333 -1,0.5 0,0.333332 -0.16666,0.5 -0.5,0.5 -0.33333,0 -0.5,0.166667 -0.5,0.5 0,0.333332 -0.16666,0.5 -0.5,0.5 -0.33333,0 -0.5,0.166667 -0.5,0.5 0,0.333332 -0.16666,0.5 -0.5,0.5 -0.33333,0 -0.5,0.166667 -0.5,0.5 0,0.333332 -0.16666,0.5 -0.5,0.5 -0.33333,0 -0.5,0.166667 -0.5,0.5 0,0.333332 -0.16666,0.5 -0.5,0.5 -0.33333,0 -0.5,0.166667 -0.5,0.5 0,0.333332 -0.16666,0.5 -0.5,0.5 -0.41666,0 -0.5,0.166667 -0.5,1 0,0.833332 -0.0833,1 -0.5,1 -0.33333,0 -0.5,0.166667 -0.5,0.5 0,0.333332 -0.16666,0.5 -0.5,0.5 -0.33333,0 -0.5,0.166667 -0.5,0.5 0,0.333332 -0.16666,0.5 -0.5,0.5 -0.41666,0 -0.5,0.166667 -0.5,1 v 1 h -1 -1 v -1.5 c 0,-1.333333 -0.0556,-1.5 -0.5,-1.5 -0.41666,0 -0.5,-0.166668 -0.5,-1 0,-0.833333 -0.0833,-1 -0.5,-1 -0.41666,0 -0.5,-0.166668 -0.5,-1 0,-0.833333 -0.0833,-1 -0.5,-1 -0.41666,0 -0.5,-0.166668 -0.5,-1 0,-0.833333 -0.0833,-1 -0.5,-1 -0.41666,0 -0.5,-0.166668 -0.5,-1 0,-0.833333 -0.0833,-1 -0.5,-1 -0.41666,0 -0.5,-0.166668 -0.5,-1 0,-0.833333 -0.0833,-1 -0.5,-1 -0.33333,0 -0.5,-0.166668 -0.5,-0.5 0,-0.333333 -0.16666,-0.5 -0.5,-0.5 -0.41666,0 -0.5,-0.166668 -0.5,-1 0,-0.833333 -0.0833,-1 -0.5,-1 -0.33333,0 -0.5,-0.166668 -0.5,-0.5 0,-0.333333 -0.16666,-0.5 -0.5,-0.5 -0.33333,0 -0.5,-0.166668 -0.5,-0.5 0,-0.333333 -0.16666,-0.5 -0.5,-0.5 -0.33333,0 -0.5,-0.166668 -0.5,-0.5 0,-0.333333 -0.16666,-0.5 -0.5,-0.5 -0.41666,0 -0.5,-0.166668 -0.5,-1 0,-0.833333 -0.0833,-1 -0.5,-1 -0.33333,0 -0.5,-0.166668 -0.5,-0.5 0,-0.333333 -0.16666,-0.5 -0.5,-0.5 -0.33333,0 -0.5,-0.166668 -0.5,-0.5 0,-0.333333 -0.16666,-0.5 -0.5,-0.5 -0.33333,0 -0.5,-0.166668 -0.5,-0.5 0,-0.333333 -0.16666,-0.5 -0.5,-0.5 -0.33333,0 -0.5,-0.166668 -0.5,-0.5 0,-0.333333 -0.16666,-0.5 -0.5,-0.5 -0.33333,0 -0.5,-0.166668 -0.5,-0.5 0,-0.333333 -0.16666,-0.5 -0.5,-0.5 -0.33333,0 -0.5,-0.166668 -0.5,-0.5 0,-0.416668 -0.16666,-0.5 -1,-0.5 -0.83333,0 -1,-0.08333 -1,-0.5 0,-0.333333 -0.16666,-0.5 -0.5,-0.5 -0.33333,0 -0.5,-0.166668 -0.5,-0.5 0,-0.333333 -0.16666,-0.5 -0.5,-0.5 -0.33333,0 -0.5,-0.166668 -0.5,-0.5 0,-0.416668 -0.16666,-0.5 -1,-0.5 -0.83333,0 -1,-0.08333 -1,-0.5 0,-0.333333 -0.16666,-0.5 -0.5,-0.5 -0.33333,0 -0.5,-0.166667 -0.5,-0.5 0,-0.416667 -0.16666,-0.5 -1,-0.5 -0.83333,0 -1,-0.08333 -1,-0.5 0,-0.333333 -0.16666,-0.5 -0.5,-0.5 -0.33333,0 -0.5,-0.166667 -0.5,-0.5 0,-0.416667 -0.16666,-0.5 -1,-0.5 -0.83333,0 -1,-0.08333 -1,-0.5 0,-0.416667 -0.16666,-0.5 -1,-0.5 -0.83333,0 -1,-0.08333 -1,-0.5 0,-0.416667 -0.16666,-0.5 -1,-0.5 -0.83333,0 -1,-0.08333 -1,-0.5 0,-0.444445 -0.16666,-0.5 -1.5,-0.5 -1.33333,0 -1.5,-0.05556 -1.5,-0.5 0,-0.444445 -0.16666,-0.5 -1.5,-0.5 -1.33333,0 -1.5,-0.05556 -1.5,-0.5 0,-0.444445 -0.16666,-0.5 -1.5,-0.5 -1.33333,0 -1.5,-0.05556 -1.5,-0.5 0,-0.458333 -0.16666,-0.5 -2,-0.5 -1.83333,0 -2,-0.04167 -2,-0.5 0,-0.481482 -0.16666,-0.5 -4.5,-0.5 -4.33333,0 -4.5,-0.01852 -4.5,-0.5 0,-0.472222 -0.16666,-0.5 -3,-0.5 -2.83333,0 -3,0.02778 -3,0.5 0,0.479167 -0.16666,0.5 -4,0.5 -3.83333,0 -4,0.02083 -4,0.5 0,0.466667 -0.16666,0.5 -2.5,0.5 -2.33333,0 -2.5,0.03333 -2.5,0.5 0,0.444444 -0.16666,0.5 -1.5,0.5 -1.33333,0 -1.5,0.05555 -1.5,0.5 0,0.444444 -0.16666,0.5 -1.5,0.5 -1.33333,0 -1.5,0.05555 -1.5,0.5 0,0.416667 -0.16666,0.5 -1,0.5 -0.83333,0 -1,0.08333 -1,0.5 0,0.444444 -0.16666,0.5 -1.5,0.5 -1.33333,0 -1.5,0.05555 -1.5,0.5 0,0.416667 -0.16666,0.5 -1,0.5 -0.83333,0 -1,0.08333 -1,0.5 0,0.333333 -0.16666,0.5 -0.5,0.5 -0.33333,0 -0.5,0.166667 -0.5,0.5 0,0.416667 -0.16666,0.5 -1,0.5 -0.83333,0 -1,0.08333 -1,0.5 0,0.416667 -0.16666,0.5 -1,0.5 -0.83333,0 -1,0.08333 -1,0.5 0,0.333333 -0.16666,0.5 -0.5,0.5 -0.33333,0 -0.5,0.166667 -0.5,0.5 0,0.333332 -0.16666,0.5 -0.5,0.5 -0.33333,0 -0.5,0.166667 -0.5,0.5 0,0.416667 -0.16666,0.5 -1,0.5 -0.83333,0 -1,0.08333 -1,0.5 0,0.333332 -0.16666,0.5 -0.5,0.5 -0.33333,0 -0.5,0.166667 -0.5,0.5 0,0.333332 -0.16666,0.5 -0.5,0.5 -0.33333,0 -0.5,0.166667 -0.5,0.5 0,0.333332 -0.16666,0.5 -0.5,0.5 -0.33333,0 -0.5,0.166667 -0.5,0.5 0,0.333332 -0.16666,0.5 -0.5,0.5 -0.33333,0 -0.5,0.166667 -0.5,0.5 0,0.333332 -0.16666,0.5 -0.5,0.5 -0.33333,0 -0.5,0.166667 -0.5,0.5 0,0.333332 -0.16666,0.5 -0.5,0.5 -0.33333,0 -0.5,0.166667 -0.5,0.5 0,0.333332 -0.16666,0.5 -0.5,0.5 -0.33333,0 -0.5,0.166667 -0.5,0.5 0,0.333332 -0.16666,0.5 -0.5,0.5 -0.33333,0 -0.5,0.166667 -0.5,0.5 0,0.333332 -0.16666,0.5 -0.5,0.5 -0.33333,0 -0.5,0.166667 -0.5,0.5 0,0.333332 -0.16666,0.5 -0.5,0.5 -0.33333,0 -0.5,0.166667 -0.5,0.5 0,0.333332 -0.16666,0.5 -0.5,0.5 -0.41666,0 -0.5,0.166667 -0.5,1 0,0.833332 -0.0833,1 -0.5,1 -0.33333,0 -0.5,0.166667 -0.5,0.5 0,0.333332 -0.16666,0.5 -0.5,0.5 -0.41666,0 -0.5,0.166667 -0.5,1 0,0.833332 -0.0833,1 -0.5,1 -0.33333,0 -0.5,0.166667 -0.5,0.5 0,0.333332 -0.16666,0.5 -0.5,0.5 -0.41666,0 -0.5,0.166667 -0.5,1 0,0.833332 -0.0833,1 -0.5,1 -0.41666,0 -0.5,0.166667 -0.5,1 0,0.833332 -0.0833,1 -0.5,1 -0.41666,0 -0.5,0.166667 -0.5,1 0,0.833332 -0.0833,1 -0.5,1 -0.41666,0 -0.5,0.166667 -0.5,1 0,0.833332 -0.0833,1 -0.5,1 -0.41666,0 -0.5,0.166667 -0.5,1 0,0.833332 -0.0833,1 -0.5,1 -0.44444,0 -0.5,0.166667 -0.5,1.5 0,1.333332 -0.0555,1.5 -0.5,1.5 -0.33333,0 -0.5,-0.166668 -0.5,-0.5 0,-0.333333 -0.16666,-0.5 -0.5,-0.5 -0.41666,0 -0.5,-0.166668 -0.5,-1 0,-0.833333 -0.0833,-1 -0.5,-1 -0.33333,0 -0.5,-0.166668 -0.5,-0.5 0,-0.333333 -0.16666,-0.5 -0.5,-0.5 -0.33333,0 -0.5,-0.166668 -0.5,-0.5 0,-0.333333 -0.16666,-0.5 -0.5,-0.5 -0.41666,0 -0.5,-0.166668 -0.5,-1 0,-0.833333 -0.0833,-1 -0.5,-1 -0.33333,0 -0.5,-0.166668 -0.5,-0.5 0,-0.333333 -0.16666,-0.5 -0.5,-0.5 -0.33333,0 -0.5,-0.166668 -0.5,-0.5 0,-0.333333 -0.16666,-0.5 -0.5,-0.5 -0.33333,0 -0.5,-0.166668 -0.5,-0.5 0,-0.333333 -0.16666,-0.5 -0.5,-0.5 -0.33333,0 -0.5,-0.166668 -0.5,-0.5 0,-0.333333 -0.16666,-0.5 -0.5,-0.5 -0.33333,0 -0.5,-0.166668 -0.5,-0.5 0,-0.333333 -0.16666,-0.5 -0.5,-0.5 -0.33333,0 -0.5,-0.166668 -0.5,-0.5 0,-0.416668 -0.16666,-0.5 -1,-0.5 -0.83333,0 -1,-0.08333 -1,-0.5 0,-0.333333 -0.16666,-0.5 -0.5,-0.5 -0.33333,0 -0.5,-0.166668 -0.5,-0.5 0,-0.416668 -0.16666,-0.5 -1,-0.5 -0.83333,0 -1,-0.08333 -1,-0.5 0,-0.416668 -0.16666,-0.5 -1,-0.5 -0.83333,0 -1,-0.08333 -1,-0.5 0,-0.416668 -0.16666,-0.5 -1,-0.5 -0.83333,0 -1,-0.08333 -1,-0.5 0,-0.416668 -0.16666,-0.5 -1,-0.5 -0.83333,0 -1,-0.08333 -1,-0.5 0,-0.444445 -0.166664,-0.5 -1.499997,-0.5 -1.333332,0 -1.5,-0.05555 -1.5,-0.5 0,-0.458333 -0.166667,-0.5 -2,-0.5 -1.833332,0 -2,-0.04167 -2,-0.5 0,-0.48889 -0.166667,-0.5 -7.5,-0.5 -7.333332,0 -7.5,0.0111 -7.5,0.5 0,0.458332 -0.166667,0.5 -2,0.5 -1.833332,0 -2,0.04167 -2,0.5 0,0.444445 -0.166667,0.5 -1.5,0.5 -1.333332,0 -1.5,0.05555 -1.5,0.5 0,0.416667 -0.166667,0.5 -1,0.5 -0.833332,0 -1,0.08333 -1,0.5 0,0.416667 -0.166667,0.5 -1,0.5 -0.833332,0 -1,0.08333 -1,0.5 0,0.416667 -0.166667,0.5 -1,0.5 -0.833332,0 -1,0.08333 -1,0.5 0,0.416667 -0.166667,0.5 -1,0.5 -0.833332,0 -1,0.08333 -1,0.5 0,0.333332 -0.166667,0.5 -0.5,0.5 -0.333332,0 -0.5,0.166667 -0.5,0.5 0,0.333332 -0.166667,0.5 -0.5,0.5 -0.333332,0 -0.5,0.166667 -0.5,0.5 0,0.416667 -0.166667,0.5 -1,0.5 -0.833332,0 -1,0.08333 -1,0.5 0,0.333332 -0.166667,0.5 -0.5,0.5 -0.333332,0 -0.5,0.166667 -0.5,0.5 0,0.333332 -0.166667,0.5 -0.5,0.5 -0.333332,0 -0.5,0.166667 -0.5,0.5 0,0.333332 -0.166667,0.5 -0.5,0.5 -0.333332,0 -0.5,0.166667 -0.5,0.5 0,0.333332 -0.166667,0.5 -0.5,0.5 -0.333332,0 -0.5,0.166667 -0.5,0.5 0,0.333332 -0.166667,0.5 -0.5,0.5 -0.416666,0 -0.5,0.166667 -0.5,1 0,0.833332 -0.08333,1 -0.5,1 -0.333333,0 -0.5,0.166667 -0.5,0.5 0,0.333332 -0.166666,0.5 -0.5,0.5 -0.416666,0 -0.5,0.166667 -0.5,1 0,0.833332 -0.08333,1 -0.5,1 -0.333333,0 -0.5,0.166667 -0.5,0.5 0,0.333332 -0.166666,0.5 -0.5,0.5 -0.416666,0 -0.5,0.166667 -0.5,1 0,0.833332 -0.08333,1 -0.5,1 -0.416666,0 -0.5,0.166667 -0.5,1 0,0.833332 -0.08333,1 -0.5,1 -0.444444,0 -0.5,0.166667 -0.5,1.5 0,1.333332 -0.05555,1.5 -0.5,1.5 -0.444444,0 -0.5,0.166667 -0.5,1.5 0,1.333332 -0.05555,1.5 -0.5,1.5 -0.472222,0 -0.5,0.166667 -0.5,3 0,2.833332 -0.02778,3 -0.5,3 -0.479166,0 -0.5,0.166667 -0.5,4 0,3.833332 0.02083,4 0.5,4 0.472223,0 0.5,0.166667 0.5,2.999999 0,2.83333 0.02778,3 0.5,3 0.444445,0 0.5,0.16667 0.5,1.5 0,1.33333 0.05556,1.5 0.5,1.5 0.444445,0 0.5,0.16667 0.5,1.5 0,1.33333 0.05556,1.5 0.5,1.5 0.416667,0 0.5,0.16667 0.5,1 0,0.83333 0.08333,1 0.5,1 0.416667,0 0.5,0.16667 0.5,1 0,0.83333 0.08333,1 0.5,1 0.333334,0 0.5,0.16667 0.5,0.5 0,0.33333 0.166667,0.5 0.5,0.5 0.416667,0 0.5,0.16667 0.5,1 0,0.83333 0.08333,1 0.5,1 0.333334,0 0.5,0.16667 0.5,0.5 0,0.33333 0.166667,0.5 0.5,0.5 0.416667,0 0.5,0.16667 0.5,1 0,0.83333 0.08333,1 0.5,1 0.333333,0 0.5,0.16667 0.5,0.5 0,0.33333 0.166668,0.5 0.5,0.5 0.333333,0 0.5,0.16667 0.5,0.5 0,0.33333 0.166668,0.5 0.5,0.5 0.333333,0 0.5,0.16667 0.5,0.5 0,0.33333 0.166668,0.5 0.5,0.5 0.333333,0 0.5,0.16667 0.5,0.5 0,0.33333 0.166668,0.5 0.5,0.5 0.333333,0 0.5,0.16667 0.5,0.5 0,0.41667 0.166668,0.5 1,0.5 0.833333,0 1,0.0833 1,0.5 0,0.33333 0.166668,0.5 0.5,0.5 0.333333,0 0.5,0.16667 0.5,0.5 0,0.33333 0.166668,0.5 0.5,0.5 0.333333,0 0.5,0.16667 0.5,0.5 0,0.41667 0.166668,0.5 1,0.5 0.833333,0 1,0.0833 1,0.5 0,0.41667 0.166668,0.5 1,0.5 0.833333,0 1,0.0833 1,0.5 0,0.41667 0.166668,0.5 1,0.5 0.833333,0 1,0.0833 1,0.5 0,0.41667 0.166668,0.5 1,0.5 0.833333,0 1,0.0833 1,0.5 0,0.44445 0.166668,0.5 1.5,0.5 1.333333,0 1.5,0.0556 1.5,0.5 0,0.45833 0.166668,0.5 2,0.5 1.833333,0 2,0.0417 2,0.5 0,0.48889 0.166668,0.5 7.5,0.5 7.333333,0 7.5,-0.0111 7.5,-0.5 0,-0.45833 0.166668,-0.5 2,-0.5 1.833333,0 2,-0.0417 2,-0.5 0,-0.44444 0.166668,-0.5 1.5,-0.5 1.333333,0 1.499997,-0.0556 1.499997,-0.5 0,-0.41667 0.16667,-0.5 1,-0.5 0.83334,0 1,-0.0833 1,-0.5 0,-0.41667 0.16667,-0.5 1,-0.5 0.83334,0 1,-0.0833 1,-0.5 0,-0.41667 0.16667,-0.5 1,-0.5 0.83334,0 1,-0.0833 1,-0.5 0,-0.41667 0.16667,-0.5 1,-0.5 0.83334,0 1,-0.0833 1,-0.5 0,-0.33333 0.16667,-0.5 0.5,-0.5 0.33334,0 0.5,-0.16667 0.5,-0.5 0,-0.33333 0.16667,-0.5 0.5,-0.5 0.33334,0 0.5,-0.16667 0.5,-0.5 0,-0.41667 0.16667,-0.5 1,-0.5 0.83334,0 1,-0.0833 1,-0.5 0,-0.33333 0.16667,-0.5 0.5,-0.5 0.33334,0 0.5,-0.16667 0.5,-0.5 0,-0.33333 0.16667,-0.5 0.5,-0.5 0.33334,0 0.5,-0.16667 0.5,-0.5 0,-0.33333 0.16667,-0.5 0.5,-0.5 0.33334,0 0.5,-0.16667 0.5,-0.5 0,-0.33333 0.16667,-0.5 0.5,-0.5 0.33334,0 0.5,-0.16667 0.5,-0.5 0,-0.33333 0.16667,-0.5 0.5,-0.5 0.41667,0 0.5,-0.16667 0.5,-1 0,-0.83333 0.0833,-1 0.5,-1 0.33334,0 0.5,-0.16667 0.5,-0.5 0,-0.33333 0.16667,-0.5 0.5,-0.5 0.41667,0 0.5,-0.16667 0.5,-1 0,-0.83333 0.0833,-1 0.5,-1 0.33334,0 0.5,-0.16667 0.5,-0.5 0,-0.33333 0.16667,-0.5 0.5,-0.5 0.33334,0 0.5,-0.16667 0.5,-0.5 0,-0.33333 0.16667,-0.5 0.5,-0.5 0.44445,0 0.5,0.16667 0.5,1.5 0,1.33333 0.0556,1.5 0.5,1.5 0.41667,0 0.5,0.16667 0.5,1 0,0.83333 0.0833,1 0.5,1 0.41667,0 0.5,0.16667 0.5,1 0,0.83333 0.0833,1 0.5,1 0.41667,0 0.5,0.16667 0.5,1 0,0.83333 0.0833,1 0.5,1 0.41667,0 0.5,0.16667 0.5,1 0,0.83333 0.0833,1 0.5,1 0.41667,0 0.5,0.16667 0.5,1 0,0.83333 0.0833,1 0.5,1 0.33334,0 0.5,0.16667 0.5,0.5 0,0.33333 0.16667,0.5 0.5,0.5 0.41667,0 0.5,0.16667 0.5,1 0,0.83333 0.0833,1 0.5,1 0.33334,0 0.5,0.16667 0.5,0.5 0,0.33333 0.16667,0.5 0.5,0.5 0.41667,0 0.5,0.16667 0.5,1 0,0.83333 0.0833,1 0.5,1 0.33334,0 0.5,0.16667 0.5,0.5 0,0.33333 0.16667,0.5 0.5,0.5 0.33334,0 0.5,0.16667 0.5,0.5 0,0.33333 0.16667,0.5 0.5,0.5 0.33334,0 0.5,0.16667 0.5,0.5 0,0.33333 0.16667,0.5 0.5,0.5 0.33334,0 0.5,0.16667 0.5,0.5 0,0.33333 0.16667,0.5 0.5,0.5 0.33334,0 0.5,0.16667 0.5,0.5 0,0.33333 0.16667,0.5 0.5,0.5 0.33334,0 0.5,0.16667 0.5,0.5 0,0.33333 0.16667,0.5 0.5,0.5 0.33334,0 0.5,0.16667 0.5,0.5 0,0.33333 0.16667,0.5 0.5,0.5 0.33334,0 0.5,0.16667 0.5,0.5 0,0.33333 0.16667,0.5 0.5,0.5 0.33334,0 0.5,0.16667 0.5,0.5 0,0.33333 0.16667,0.5 0.5,0.5 0.33334,0 0.5,0.16667 0.5,0.5 0,0.33333 0.16667,0.5 0.5,0.5 0.33334,0 0.5,0.16667 0.5,0.5 0,0.41667 0.16667,0.5 1,0.5 0.83334,0 1,0.0833 1,0.5 0,0.33333 0.16667,0.5 0.5,0.5 0.33334,0 0.5,0.16667 0.5,0.5 0,0.33333 0.16667,0.5 0.5,0.5 0.33334,0 0.5,0.16667 0.5,0.5 0,0.41667 0.16667,0.5 1,0.5 0.83334,0 1,0.0833 1,0.5 0,0.41667 0.16667,0.5 1,0.5 0.83334,0 1,0.0833 1,0.5 0,0.41667 0.16667,0.5 1,0.5 0.83334,0 1,0.0833 1,0.5 0,0.41667 0.16667,0.5 1,0.5 0.83334,0 1,0.0833 1,0.5 0,0.41667 0.16667,0.5 1,0.5 0.83334,0 1,0.0833 1,0.5 0,0.41667 0.16667,0.5 1,0.5 0.83334,0 1,0.0833 1,0.5 0,0.44445 0.16667,0.5 1.5,0.5 1.33334,0 1.5,0.0556 1.5,0.5 0,0.44445 0.16667,0.5 1.5,0.5 1.33334,0 1.5,0.0556 1.5,0.5 0,0.46667 0.16667,0.5 2.5,0.5 2.33334,0 2.5,0.0333 2.5,0.5 0,0.48148 0.16667,0.5 4.5,0.5 4.33334,0 4.5,0.0185 4.5,0.5 0,0.46667 0.16667,0.5 2.5,0.5 2.33334,0 2.5,-0.0333 2.5,-0.5 z"
       id="path5226"
       inkscape:connector-curvature="0"
       transform="scale(0.26458333)" />
    <path
       style="fill:none;fill-opacity:0.87843137;stroke:none;stroke-width:0.0888189;stroke-miterlimit:4;stroke-dasharray:none;stroke-opacity:1"
       d="m 30.015933,94.991501 v -74.875 h 149.874997 149.875 v 74.875 74.874999 H 179.89093 30.015933 Z M 183.01593,156.6165 c 0,-0.48148 0.16667,-0.5 4.5,-0.5 4.33334,0 4.5,-0.0185 4.5,-0.5 0,-0.45833 0.16667,-0.5 2,-0.5 1.83334,0 2,-0.0417 2,-0.5 0,-0.44444 0.16667,-0.5 1.5,-0.5 1.33334,0 1.5,-0.0556 1.5,-0.5 0,-0.44444 0.16667,-0.5 1.5,-0.5 1.33334,0 1.5,-0.0556 1.5,-0.5 0,-0.44444 0.16667,-0.5 1.5,-0.5 1.33334,0 1.5,-0.0556 1.5,-0.5 0,-0.41667 0.16667,-0.5 1,-0.5 0.83334,0 1,-0.0833 1,-0.5 0,-0.41667 0.16667,-0.5 1,-0.5 0.83334,0 1,-0.0833 1,-0.5 0,-0.41667 0.16667,-0.5 1,-0.5 0.83334,0 1,-0.0833 1,-0.5 0,-0.33333 0.16667,-0.5 0.5,-0.5 0.33334,0 0.5,-0.16667 0.5,-0.5 0,-0.41667 0.16667,-0.5 1,-0.5 0.83334,0 1,-0.0833 1,-0.5 0,-0.33333 0.16667,-0.5 0.5,-0.5 0.33334,0 0.5,-0.16667 0.5,-0.5 0,-0.41667 0.16667,-0.5 1,-0.5 0.83334,0 1,-0.0833 1,-0.5 0,-0.33333 0.16667,-0.5 0.5,-0.5 0.33334,0 0.5,-0.16667 0.5,-0.5 0,-0.33333 0.16667,-0.5 0.5,-0.5 0.33334,0 0.5,-0.16667 0.5,-0.5 0,-0.41667 0.16667,-0.5 1,-0.5 0.83334,0 1,-0.0833 1,-0.5 0,-0.33333 0.16667,-0.5 0.5,-0.5 0.33334,0 0.5,-0.16667 0.5,-0.5 0,-0.33333 0.16667,-0.5 0.5,-0.5 0.33334,0 0.5,-0.16667 0.5,-0.5 0,-0.33333 0.16667,-0.5 0.5,-0.5 0.33334,0 0.5,-0.16667 0.5,-0.5 0,-0.33333 0.16667,-0.5 0.5,-0.5 0.33334,0 0.5,-0.16667 0.5,-0.5 0,-0.33333 0.16667,-0.5 0.5,-0.5 0.33334,0 0.5,-0.16667 0.5,-0.5 0,-0.33333 0.16667,-0.5 0.5,-0.5 0.41667,0 0.5,-0.16667 0.5,-1 0,-0.83333 0.0833,-1 0.5,-1 0.33334,0 0.5,-0.16667 0.5,-0.5 0,-0.33333 0.16667,-0.5 0.5,-0.5 0.33334,0 0.5,-0.16667 0.5,-0.5 0,-0.33333 0.16667,-0.5 0.5,-0.5 0.33334,0 0.5,-0.16667 0.5,-0.5 0,-0.33333 0.16667,-0.5 0.5,-0.5 0.41667,0 0.5,-0.16667 0.5,-1 0,-0.83333 0.0833,-1 0.5,-1 0.33334,0 0.5,-0.16667 0.5,-0.5 0,-0.33333 0.16667,-0.5 0.5,-0.5 0.41667,0 0.5,-0.16667 0.5,-1 0,-0.83333 0.0833,-1 0.5,-1 0.41667,0 0.5,-0.16667 0.5,-1 0,-0.83333 0.0833,-1 0.5,-1 0.41667,0 0.5,-0.16667 0.5,-1 0,-0.83333 0.0833,-1 0.5,-1 0.41667,0 0.5,-0.16667 0.5,-1 0,-0.83333 0.0833,-1 0.5,-1 0.41667,0 0.5,-0.16667 0.5,-1 0,-0.83333 0.0833,-1 0.5,-1 0.44445,0 0.5,-0.16667 0.5,-1.5 v -1.5 h 1 1 v 1 c 0,0.83333 0.0833,1 0.5,1 0.33334,0 0.5,0.16667 0.5,0.5 0,0.33333 0.16667,0.5 0.5,0.5 0.33334,0 0.5,0.16667 0.5,0.5 0,0.33333 0.16667,0.5 0.5,0.5 0.41667,0 0.5,0.16667 0.5,1 0,0.83333 0.0833,1 0.5,1 0.33334,0 0.5,0.16667 0.5,0.5 0,0.33333 0.16667,0.5 0.5,0.5 0.33334,0 0.5,0.16667 0.5,0.5 0,0.33333 0.16667,0.5 0.5,0.5 0.33334,0 0.5,0.16667 0.5,0.5 0,0.33333 0.16667,0.5 0.5,0.5 0.33334,0 0.5,0.16667 0.5,0.5 0,0.33333 0.16667,0.5 0.5,0.5 0.33334,0 0.5,0.16667 0.5,0.5 0,0.41667 0.16667,0.5 1,0.5 0.83334,0 1,0.0833 1,0.5 0,0.33333 0.16667,0.5 0.5,0.5 0.33334,0 0.5,0.16667 0.5,0.5 0,0.33333 0.16667,0.5 0.5,0.5 0.33334,0 0.5,0.16667 0.5,0.5 0,0.41667 0.16667,0.5 1,0.5 0.83334,0 1,0.0833 1,0.5 0,0.41667 0.16667,0.5 1,0.5 0.83334,0 1,0.0833 1,0.5 0,0.41667 0.16667,0.5 1,0.5 0.83334,0 1,0.0833 1,0.5 0,0.41667 0.16667,0.5 1,0.5 0.83334,0 1,0.0833 1,0.5 0,0.44445 0.16667,0.5 1.5,0.5 1.33334,0 1.5,0.0556 1.5,0.5 0,0.45833 0.16667,0.5 2,0.5 1.83334,0 2,0.0417 2,0.5 0,0.48889 0.16667,0.5 7.5,0.5 7.33333,0 7.5,-0.0111 7.5,-0.5 0,-0.45833 0.16668,-0.5 2,-0.5 1.83333,0 2,-0.0417 2,-0.5 0,-0.44444 0.16668,-0.5 1.5,-0.5 1.33333,0 1.5,-0.0556 1.5,-0.5 0,-0.41667 0.16668,-0.5 1,-0.5 0.83333,0 1,-0.0833 1,-0.5 0,-0.41667 0.16668,-0.5 1,-0.5 0.83333,0 1,-0.0833 1,-0.5 0,-0.41667 0.16668,-0.5 1,-0.5 0.83333,0 1,-0.0833 1,-0.5 0,-0.41667 0.16668,-0.5 1,-0.5 0.83333,0 1,-0.0833 1,-0.5 0,-0.33333 0.16668,-0.5 0.5,-0.5 0.33333,0 0.5,-0.16667 0.5,-0.5 0,-0.33333 0.16668,-0.5 0.5,-0.5 0.33333,0 0.5,-0.16667 0.5,-0.5 0,-0.41667 0.16668,-0.5 1,-0.5 0.83333,0 1,-0.0833 1,-0.5 0,-0.33333 0.16668,-0.5 0.5,-0.5 0.33333,0 0.5,-0.16667 0.5,-0.5 0,-0.33333 0.16668,-0.5 0.5,-0.5 0.33333,0 0.5,-0.16667 0.5,-0.5 0,-0.33333 0.16668,-0.5 0.5,-0.5 0.33333,0 0.5,-0.16667 0.5,-0.5 0,-0.33333 0.16668,-0.5 0.5,-0.5 0.33333,0 0.5,-0.16667 0.5,-0.5 0,-0.33333 0.16668,-0.5 0.5,-0.5 0.41668,0 0.5,-0.16667 0.5,-1 0,-0.83333 0.0833,-1 0.5,-1 0.33333,0 0.5,-0.16667 0.5,-0.5 0,-0.33333 0.16668,-0.5 0.5,-0.5 0.41668,0 0.5,-0.16667 0.5,-1 0,-0.83333 0.0833,-1 0.5,-1 0.33333,0 0.5,-0.16667 0.5,-0.5 0,-0.33333 0.16668,-0.5 0.5,-0.5 0.41668,0 0.5,-0.16667 0.5,-1 0,-0.83333 0.0833,-1 0.5,-1 0.41668,0 0.5,-0.16667 0.5,-1 0,-0.83333 0.0833,-1 0.5,-1 0.44445,0 0.5,-0.16667 0.5,-1.5 0,-1.33333 0.0555,-1.5 0.5,-1.5 0.45833,0 0.5,-0.16667 0.5,-2 0,-1.83333 0.0417,-2 0.5,-2 0.46668,0 0.5,-0.16667 0.5,-2.5 0,-2.333332 0.0333,-2.499999 0.5,-2.499999 0.47918,0 0.5,-0.166668 0.5,-4 0,-3.833333 -0.0208,-4 -0.5,-4 -0.46667,0 -0.5,-0.166668 -0.5,-2.5 0,-2.333333 -0.0333,-2.5 -0.5,-2.5 -0.45832,0 -0.5,-0.166668 -0.5,-2 0,-1.833333 -0.0417,-2 -0.5,-2 -0.44445,0 -0.5,-0.166668 -0.5,-1.5 0,-1.333333 -0.0556,-1.5 -0.5,-1.5 -0.41667,0 -0.5,-0.166668 -0.5,-1 0,-0.833333 -0.0833,-1 -0.5,-1 -0.41667,0 -0.5,-0.166668 -0.5,-1 0,-0.833333 -0.0833,-1 -0.5,-1 -0.33332,0 -0.5,-0.166668 -0.5,-0.5 0,-0.333333 -0.16667,-0.5 -0.5,-0.5 -0.41667,0 -0.5,-0.166668 -0.5,-1 0,-0.833333 -0.0833,-1 -0.5,-1 -0.33332,0 -0.5,-0.166668 -0.5,-0.5 0,-0.333333 -0.16667,-0.5 -0.5,-0.5 -0.41667,0 -0.5,-0.166668 -0.5,-1 0,-0.833333 -0.0833,-1 -0.5,-1 -0.33332,0 -0.5,-0.166668 -0.5,-0.5 0,-0.333333 -0.16667,-0.5 -0.5,-0.5 -0.33332,0 -0.5,-0.166668 -0.5,-0.5 0,-0.333333 -0.16667,-0.5 -0.5,-0.5 -0.33332,0 -0.5,-0.166668 -0.5,-0.5 0,-0.333333 -0.16667,-0.5 -0.5,-0.5 -0.33332,0 -0.5,-0.166668 -0.5,-0.5 0,-0.333333 -0.16667,-0.5 -0.5,-0.5 -0.33332,0 -0.5,-0.166668 -0.5,-0.5 0,-0.416668 -0.16667,-0.5 -1,-0.5 -0.83332,0 -1,-0.08333 -1,-0.5 0,-0.333333 -0.16667,-0.5 -0.5,-0.5 -0.33332,0 -0.5,-0.166668 -0.5,-0.5 0,-0.333333 -0.16667,-0.5 -0.5,-0.5 -0.33332,0 -0.5,-0.166668 -0.5,-0.5 0,-0.416668 -0.16667,-0.5 -1,-0.5 -0.83332,0 -1,-0.08333 -1,-0.5 0,-0.416668 -0.16667,-0.5 -1,-0.5 -0.83332,0 -1,-0.08333 -1,-0.5 0,-0.416668 -0.16667,-0.5 -1,-0.5 -0.83332,0 -1,-0.08333 -1,-0.5 0,-0.416668 -0.16667,-0.5 -1,-0.5 -0.83332,0 -1,-0.08333 -1,-0.5 0,-0.444445 -0.16667,-0.5 -1.5,-0.5 -1.33332,0 -1.5,-0.05555 -1.5,-0.5 0,-0.458333 -0.16667,-0.5 -2,-0.5 -1.83332,0 -2,-0.04167 -2,-0.5 0,-0.48889 -0.16667,-0.5 -7.5,-0.5 -7.33333,0 -7.5,0.0111 -7.5,0.5 0,0.458332 -0.16666,0.5 -2,0.5 -1.83333,0 -2,0.04167 -2,0.5 0,0.444445 -0.16666,0.5 -1.5,0.5 -1.33333,0 -1.5,0.05555 -1.5,0.5 0,0.416667 -0.16666,0.5 -1,0.5 -0.83333,0 -1,0.08333 -1,0.5 0,0.416667 -0.16666,0.5 -1,0.5 -0.83333,0 -1,0.08333 -1,0.5 0,0.416667 -0.16666,0.5 -1,0.5 -0.83333,0 -1,0.08333 -1,0.5 0,0.416667 -0.16666,0.5 -1,0.5 -0.83333,0 -1,0.08333 -1,0.5 0,0.333332 -0.16666,0.5 -0.5,0.5 -0.33333,0 -0.5,0.166667 -0.5,0.5 0,0.416667 -0.16666,0.5 -1,0.5 -0.83333,0 -1,0.08333 -1,0.5 0,0.333332 -0.16666,0.5 -0.5,0.5 -0.33333,0 -0.5,0.166667 -0.5,0.5 0,0.333332 -0.16666,0.5 -0.5,0.5 -0.33333,0 -0.5,0.166667 -0.5,0.5 0,0.333332 -0.16666,0.5 -0.5,0.5 -0.33333,0 -0.5,0.166667 -0.5,0.5 0,0.333332 -0.16666,0.5 -0.5,0.5 -0.33333,0 -0.5,0.166667 -0.5,0.5 0,0.333332 -0.16666,0.5 -0.5,0.5 -0.33333,0 -0.5,0.166667 -0.5,0.5 0,0.333332 -0.16666,0.5 -0.5,0.5 -0.41666,0 -0.5,0.166667 -0.5,1 0,0.833332 -0.0833,1 -0.5,1 -0.33333,0 -0.5,0.166667 -0.5,0.5 0,0.333332 -0.16666,0.5 -0.5,0.5 -0.33333,0 -0.5,0.166667 -0.5,0.5 0,0.333332 -0.16666,0.5 -0.5,0.5 -0.41666,0 -0.5,0.166667 -0.5,1 v 1 h -1 -1 v -1.5 c 0,-1.333333 -0.0556,-1.5 -0.5,-1.5 -0.41666,0 -0.5,-0.166668 -0.5,-1 0,-0.833333 -0.0833,-1 -0.5,-1 -0.41666,0 -0.5,-0.166668 -0.5,-1 0,-0.833333 -0.0833,-1 -0.5,-1 -0.41666,0 -0.5,-0.166668 -0.5,-1 0,-0.833333 -0.0833,-1 -0.5,-1 -0.41666,0 -0.5,-0.166668 -0.5,-1 0,-0.833333 -0.0833,-1 -0.5,-1 -0.41666,0 -0.5,-0.166668 -0.5,-1 0,-0.833333 -0.0833,-1 -0.5,-1 -0.33333,0 -0.5,-0.166668 -0.5,-0.5 0,-0.333333 -0.16666,-0.5 -0.5,-0.5 -0.41666,0 -0.5,-0.166668 -0.5,-1 0,-0.833333 -0.0833,-1 -0.5,-1 -0.33333,0 -0.5,-0.166668 -0.5,-0.5 0,-0.333333 -0.16666,-0.5 -0.5,-0.5 -0.33333,0 -0.5,-0.166668 -0.5,-0.5 0,-0.333333 -0.16666,-0.5 -0.5,-0.5 -0.33333,0 -0.5,-0.166668 -0.5,-0.5 0,-0.333333 -0.16666,-0.5 -0.5,-0.5 -0.41666,0 -0.5,-0.166668 -0.5,-1 0,-0.833333 -0.0833,-1 -0.5,-1 -0.33333,0 -0.5,-0.166668 -0.5,-0.5 0,-0.333333 -0.16666,-0.5 -0.5,-0.5 -0.33333,0 -0.5,-0.166668 -0.5,-0.5 0,-0.333333 -0.16666,-0.5 -0.5,-0.5 -0.33333,0 -0.5,-0.166668 -0.5,-0.5 0,-0.333333 -0.16666,-0.5 -0.5,-0.5 -0.33333,0 -0.5,-0.166668 -0.5,-0.5 0,-0.333333 -0.16666,-0.5 -0.5,-0.5 -0.33333,0 -0.5,-0.166668 -0.5,-0.5 0,-0.333333 -0.16666,-0.5 -0.5,-0.5 -0.33333,0 -0.5,-0.166668 -0.5,-0.5 0,-0.416668 -0.16666,-0.5 -1,-0.5 -0.83333,0 -1,-0.08333 -1,-0.5 0,-0.333333 -0.16666,-0.5 -0.5,-0.5 -0.33333,0 -0.5,-0.166668 -0.5,-0.5 0,-0.333333 -0.16666,-0.5 -0.5,-0.5 -0.33333,0 -0.5,-0.166668 -0.5,-0.5 0,-0.416668 -0.16666,-0.5 -1,-0.5 -0.83333,0 -1,-0.08333 -1,-0.5 0,-0.333333 -0.16666,-0.5 -0.5,-0.5 -0.33333,0 -0.5,-0.166667 -0.5,-0.5 0,-0.416667 -0.16666,-0.5 -1,-0.5 -0.83333,0 -1,-0.08333 -1,-0.5 0,-0.333333 -0.16666,-0.5 -0.5,-0.5 -0.33333,0 -0.5,-0.166667 -0.5,-0.5 0,-0.416667 -0.16666,-0.5 -1,-0.5 -0.83333,0 -1,-0.08333 -1,-0.5 0,-0.416667 -0.16666,-0.5 -1,-0.5 -0.83333,0 -1,-0.08333 -1,-0.5 0,-0.416667 -0.16666,-0.5 -1,-0.5 -0.83333,0 -1,-0.08333 -1,-0.5 0,-0.444445 -0.16666,-0.5 -1.5,-0.5 -1.33333,0 -1.5,-0.05556 -1.5,-0.5 0,-0.444445 -0.16666,-0.5 -1.5,-0.5 -1.33333,0 -1.5,-0.05556 -1.5,-0.5 0,-0.444445 -0.16666,-0.5 -1.5,-0.5 -1.33333,0 -1.5,-0.05556 -1.5,-0.5 0,-0.458333 -0.16666,-0.5 -2,-0.5 -1.83333,0 -2,-0.04167 -2,-0.5 0,-0.481482 -0.16666,-0.5 -4.5,-0.5 -4.33333,0 -4.5,-0.01852 -4.5,-0.5 0,-0.472222 -0.16666,-0.5 -3,-0.5 -2.83333,0 -3,0.02778 -3,0.5 0,0.479167 -0.16666,0.5 -4,0.5 -3.83333,0 -4,0.02083 -4,0.5 0,0.466667 -0.16666,0.5 -2.5,0.5 -2.33333,0 -2.5,0.03333 -2.5,0.5 0,0.444444 -0.16666,0.5 -1.5,0.5 -1.33333,0 -1.5,0.05555 -1.5,0.5 0,0.444444 -0.16666,0.5 -1.5,0.5 -1.33333,0 -1.5,0.05555 -1.5,0.5 0,0.416667 -0.16666,0.5 -1,0.5 -0.83333,0 -1,0.08333 -1,0.5 0,0.444444 -0.16666,0.5 -1.5,0.5 -1.33333,0 -1.5,0.05555 -1.5,0.5 0,0.416667 -0.16666,0.5 -1,0.5 -0.83333,0 -1,0.08333 -1,0.5 0,0.333333 -0.16666,0.5 -0.5,0.5 -0.33333,0 -0.5,0.166667 -0.5,0.5 0,0.416667 -0.16666,0.5 -1,0.5 -0.83333,0 -1,0.08333 -1,0.5 0,0.416667 -0.16666,0.5 -1,0.5 -0.83333,0 -1,0.08333 -1,0.5 0,0.333333 -0.16666,0.5 -0.5,0.5 -0.33333,0 -0.5,0.166667 -0.5,0.5 0,0.333332 -0.16666,0.5 -0.5,0.5 -0.33333,0 -0.5,0.166667 -0.5,0.5 0,0.416667 -0.16666,0.5 -1,0.5 -0.83333,0 -1,0.08333 -1,0.5 0,0.333332 -0.16666,0.5 -0.5,0.5 -0.33333,0 -0.5,0.166667 -0.5,0.5 0,0.333332 -0.16666,0.5 -0.5,0.5 -0.33333,0 -0.5,0.166667 -0.5,0.5 0,0.333332 -0.16666,0.5 -0.5,0.5 -0.33333,0 -0.5,0.166667 -0.5,0.5 0,0.333332 -0.16666,0.5 -0.5,0.5 -0.33333,0 -0.5,0.166667 -0.5,0.5 0,0.333332 -0.16666,0.5 -0.5,0.5 -0.33333,0 -0.5,0.166667 -0.5,0.5 0,0.333332 -0.16666,0.5 -0.5,0.5 -0.33333,0 -0.5,0.166667 -0.5,0.5 0,0.333332 -0.16666,0.5 -0.5,0.5 -0.33333,0 -0.5,0.166667 -0.5,0.5 0,0.333332 -0.16666,0.5 -0.5,0.5 -0.33333,0 -0.5,0.166667 -0.5,0.5 0,0.333332 -0.16666,0.5 -0.5,0.5 -0.33333,0 -0.5,0.166667 -0.5,0.5 0,0.333332 -0.16666,0.5 -0.5,0.5 -0.33333,0 -0.5,0.166667 -0.5,0.5 0,0.333332 -0.16666,0.5 -0.5,0.5 -0.41666,0 -0.5,0.166667 -0.5,1 0,0.833332 -0.0833,1 -0.5,1 -0.33333,0 -0.5,0.166667 -0.5,0.5 0,0.333332 -0.16666,0.5 -0.5,0.5 -0.41666,0 -0.5,0.166667 -0.5,1 0,0.833332 -0.0833,1 -0.5,1 -0.33333,0 -0.5,0.166667 -0.5,0.5 0,0.333332 -0.16666,0.5 -0.5,0.5 -0.41666,0 -0.5,0.166667 -0.5,1 0,0.833332 -0.0833,1 -0.5,1 -0.41666,0 -0.5,0.166667 -0.5,1 0,0.833332 -0.0833,1 -0.5,1 -0.41666,0 -0.5,0.166667 -0.5,1 0,0.833332 -0.0833,1 -0.5,1 -0.41666,0 -0.5,0.166667 -0.5,1 0,0.833332 -0.0833,1 -0.5,1 -0.41666,0 -0.5,0.166667 -0.5,1 0,0.833332 -0.0833,1 -0.5,1 -0.44444,0 -0.5,0.166667 -0.5,1.5 0,1.333332 -0.0555,1.5 -0.5,1.5 -0.33333,0 -0.5,-0.166668 -0.5,-0.5 0,-0.333333 -0.16666,-0.5 -0.5,-0.5 -0.41666,0 -0.5,-0.166668 -0.5,-1 0,-0.833333 -0.0833,-1 -0.5,-1 -0.33333,0 -0.5,-0.166668 -0.5,-0.5 0,-0.333333 -0.16666,-0.5 -0.5,-0.5 -0.33333,0 -0.5,-0.166668 -0.5,-0.5 0,-0.333333 -0.16666,-0.5 -0.5,-0.5 -0.41666,0 -0.5,-0.166668 -0.5,-1 0,-0.833333 -0.0833,-1 -0.5,-1 -0.33333,0 -0.5,-0.166668 -0.5,-0.5 0,-0.333333 -0.16666,-0.5 -0.5,-0.5 -0.33333,0 -0.5,-0.166668 -0.5,-0.5 0,-0.333333 -0.16666,-0.5 -0.5,-0.5 -0.33333,0 -0.5,-0.166668 -0.5,-0.5 0,-0.333333 -0.16666,-0.5 -0.5,-0.5 -0.33333,0 -0.5,-0.166668 -0.5,-0.5 0,-0.333333 -0.16666,-0.5 -0.5,-0.5 -0.33333,0 -0.5,-0.166668 -0.5,-0.5 0,-0.333333 -0.16666,-0.5 -0.5,-0.5 -0.33333,0 -0.5,-0.166668 -0.5,-0.5 0,-0.416668 -0.16666,-0.5 -1,-0.5 -0.83333,0 -1,-0.08333 -1,-0.5 0,-0.333333 -0.16666,-0.5 -0.5,-0.5 -0.33333,0 -0.5,-0.166668 -0.5,-0.5 0,-0.416668 -0.16666,-0.5 -1,-0.5 -0.83333,0 -1,-0.08333 -1,-0.5 0,-0.416668 -0.16666,-0.5 -1,-0.5 -0.83333,0 -1,-0.08333 -1,-0.5 0,-0.416668 -0.16666,-0.5 -1,-0.5 -0.83333,0 -1,-0.08333 -1,-0.5 0,-0.416668 -0.16666,-0.5 -1,-0.5 -0.83333,0 -1,-0.08333 -1,-0.5 0,-0.444445 -0.166664,-0.5 -1.499997,-0.5 -1.333332,0 -1.5,-0.05555 -1.5,-0.5 0,-0.458333 -0.166667,-0.5 -2,-0.5 -1.833332,0 -2,-0.04167 -2,-0.5 0,-0.48889 -0.166667,-0.5 -7.5,-0.5 -7.333332,0 -7.5,0.0111 -7.5,0.5 0,0.458332 -0.166667,0.5 -2,0.5 -1.833332,0 -2,0.04167 -2,0.5 0,0.444445 -0.166667,0.5 -1.5,0.5 -1.333332,0 -1.5,0.05555 -1.5,0.5 0,0.416667 -0.166667,0.5 -1,0.5 -0.833332,0 -1,0.08333 -1,0.5 0,0.416667 -0.166667,0.5 -1,0.5 -0.833332,0 -1,0.08333 -1,0.5 0,0.416667 -0.166667,0.5 -1,0.5 -0.833332,0 -1,0.08333 -1,0.5 0,0.416667 -0.166667,0.5 -1,0.5 -0.833332,0 -1,0.08333 -1,0.5 0,0.333332 -0.166667,0.5 -0.5,0.5 -0.333332,0 -0.5,0.166667 -0.5,0.5 0,0.333332 -0.166667,0.5 -0.5,0.5 -0.333332,0 -0.5,0.166667 -0.5,0.5 0,0.416667 -0.166667,0.5 -1,0.5 -0.833332,0 -1,0.08333 -1,0.5 0,0.333332 -0.166667,0.5 -0.5,0.5 -0.333332,0 -0.5,0.166667 -0.5,0.5 0,0.333332 -0.166667,0.5 -0.5,0.5 -0.333332,0 -0.5,0.166667 -0.5,0.5 0,0.333332 -0.166667,0.5 -0.5,0.5 -0.333332,0 -0.5,0.166667 -0.5,0.5 0,0.333332 -0.166667,0.5 -0.5,0.5 -0.333332,0 -0.5,0.166667 -0.5,0.5 0,0.333332 -0.166667,0.5 -0.5,0.5 -0.416666,0 -0.5,0.166667 -0.5,1 0,0.833332 -0.08333,1 -0.5,1 -0.333333,0 -0.5,0.166667 -0.5,0.5 0,0.333332 -0.166666,0.5 -0.5,0.5 -0.416666,0 -0.5,0.166667 -0.5,1 0,0.833332 -0.08333,1 -0.5,1 -0.333333,0 -0.5,0.166667 -0.5,0.5 0,0.333332 -0.166666,0.5 -0.5,0.5 -0.416666,0 -0.5,0.166667 -0.5,1 0,0.833332 -0.08333,1 -0.5,1 -0.416666,0 -0.5,0.166667 -0.5,1 0,0.833332 -0.08333,1 -0.5,1 -0.444444,0 -0.5,0.166667 -0.5,1.5 0,1.333332 -0.05555,1.5 -0.5,1.5 -0.444444,0 -0.5,0.166667 -0.5,1.5 0,1.333332 -0.05555,1.5 -0.5,1.5 -0.472222,0 -0.5,0.166667 -0.5,3 0,2.833332 -0.02778,3 -0.5,3 -0.479166,0 -0.5,0.166667 -0.5,4 0,3.833332 0.02083,4 0.5,4 0.472223,0 0.5,0.166667 0.5,2.999999 0,2.83333 0.02778,3 0.5,3 0.444445,0 0.5,0.16667 0.5,1.5 0,1.33333 0.05556,1.5 0.5,1.5 0.444445,0 0.5,0.16667 0.5,1.5 0,1.33333 0.05556,1.5 0.5,1.5 0.416667,0 0.5,0.16667 0.5,1 0,0.83333 0.08333,1 0.5,1 0.416667,0 0.5,0.16667 0.5,1 0,0.83333 0.08333,1 0.5,1 0.333334,0 0.5,0.16667 0.5,0.5 0,0.33333 0.166667,0.5 0.5,0.5 0.416667,0 0.5,0.16667 0.5,1 0,0.83333 0.08333,1 0.5,1 0.333334,0 0.5,0.16667 0.5,0.5 0,0.33333 0.166667,0.5 0.5,0.5 0.416667,0 0.5,0.16667 0.5,1 0,0.83333 0.08333,1 0.5,1 0.333333,0 0.5,0.16667 0.5,0.5 0,0.33333 0.166668,0.5 0.5,0.5 0.333333,0 0.5,0.16667 0.5,0.5 0,0.33333 0.166668,0.5 0.5,0.5 0.333333,0 0.5,0.16667 0.5,0.5 0,0.33333 0.166668,0.5 0.5,0.5 0.333333,0 0.5,0.16667 0.5,0.5 0,0.33333 0.166668,0.5 0.5,0.5 0.333333,0 0.5,0.16667 0.5,0.5 0,0.41667 0.166668,0.5 1,0.5 0.833333,0 1,0.0833 1,0.5 0,0.33333 0.166668,0.5 0.5,0.5 0.333333,0 0.5,0.16667 0.5,0.5 0,0.33333 0.166668,0.5 0.5,0.5 0.333333,0 0.5,0.16667 0.5,0.5 0,0.41667 0.166668,0.5 1,0.5 0.833333,0 1,0.0833 1,0.5 0,0.41667 0.166668,0.5 1,0.5 0.833333,0 1,0.0833 1,0.5 0,0.41667 0.166668,0.5 1,0.5 0.833333,0 1,0.0833 1,0.5 0,0.41667 0.166668,0.5 1,0.5 0.833333,0 1,0.0833 1,0.5 0,0.44445 0.166668,0.5 1.5,0.5 1.333333,0 1.5,0.0556 1.5,0.5 0,0.45833 0.166668,0.5 2,0.5 1.833333,0 2,0.0417 2,0.5 0,0.48889 0.166668,0.5 7.5,0.5 7.333333,0 7.5,-0.0111 7.5,-0.5 0,-0.45833 0.166668,-0.5 2,-0.5 1.833333,0 2,-0.0417 2,-0.5 0,-0.44444 0.166668,-0.5 1.5,-0.5 1.333333,0 1.499997,-0.0556 1.499997,-0.5 0,-0.41667 0.16667,-0.5 1,-0.5 0.83334,0 1,-0.0833 1,-0.5 0,-0.41667 0.16667,-0.5 1,-0.5 0.83334,0 1,-0.0833 1,-0.5 0,-0.41667 0.16667,-0.5 1,-0.5 0.83334,0 1,-0.0833 1,-0.5 0,-0.41667 0.16667,-0.5 1,-0.5 0.83334,0 1,-0.0833 1,-0.5 0,-0.33333 0.16667,-0.5 0.5,-0.5 0.33334,0 0.5,-0.16667 0.5,-0.5 0,-0.33333 0.16667,-0.5 0.5,-0.5 0.33334,0 0.5,-0.16667 0.5,-0.5 0,-0.41667 0.16667,-0.5 1,-0.5 0.83334,0 1,-0.0833 1,-0.5 0,-0.33333 0.16667,-0.5 0.5,-0.5 0.33334,0 0.5,-0.16667 0.5,-0.5 0,-0.33333 0.16667,-0.5 0.5,-0.5 0.33334,0 0.5,-0.16667 0.5,-0.5 0,-0.33333 0.16667,-0.5 0.5,-0.5 0.33334,0 0.5,-0.16667 0.5,-0.5 0,-0.33333 0.16667,-0.5 0.5,-0.5 0.33334,0 0.5,-0.16667 0.5,-0.5 0,-0.33333 0.16667,-0.5 0.5,-0.5 0.41667,0 0.5,-0.16667 0.5,-1 0,-0.83333 0.0833,-1 0.5,-1 0.33334,0 0.5,-0.16667 0.5,-0.5 0,-0.33333 0.16667,-0.5 0.5,-0.5 0.41667,0 0.5,-0.16667 0.5,-1 0,-0.83333 0.0833,-1 0.5,-1 0.33334,0 0.5,-0.16667 0.5,-0.5 0,-0.33333 0.16667,-0.5 0.5,-0.5 0.33334,0 0.5,-0.16667 0.5,-0.5 0,-0.33333 0.16667,-0.5 0.5,-0.5 0.44445,0 0.5,0.16667 0.5,1.5 0,1.33333 0.0556,1.5 0.5,1.5 0.41667,0 0.5,0.16667 0.5,1 0,0.83333 0.0833,1 0.5,1 0.41667,0 0.5,0.16667 0.5,1 0,0.83333 0.0833,1 0.5,1 0.41667,0 0.5,0.16667 0.5,1 0,0.83333 0.0833,1 0.5,1 0.41667,0 0.5,0.16667 0.5,1 0,0.83333 0.0833,1 0.5,1 0.41667,0 0.5,0.16667 0.5,1 0,0.83333 0.0833,1 0.5,1 0.33334,0 0.5,0.16667 0.5,0.5 0,0.33333 0.16667,0.5 0.5,0.5 0.41667,0 0.5,0.16667 0.5,1 0,0.83333 0.0833,1 0.5,1 0.33334,0 0.5,0.16667 0.5,0.5 0,0.33333 0.16667,0.5 0.5,0.5 0.41667,0 0.5,0.16667 0.5,1 0,0.83333 0.0833,1 0.5,1 0.33334,0 0.5,0.16667 0.5,0.5 0,0.33333 0.16667,0.5 0.5,0.5 0.33334,0 0.5,0.16667 0.5,0.5 0,0.33333 0.16667,0.5 0.5,0.5 0.33334,0 0.5,0.16667 0.5,0.5 0,0.33333 0.16667,0.5 0.5,0.5 0.33334,0 0.5,0.16667 0.5,0.5 0,0.33333 0.16667,0.5 0.5,0.5 0.33334,0 0.5,0.16667 0.5,0.5 0,0.33333 0.16667,0.5 0.5,0.5 0.33334,0 0.5,0.16667 0.5,0.5 0,0.33333 0.16667,0.5 0.5,0.5 0.33334,0 0.5,0.16667 0.5,0.5 0,0.33333 0.16667,0.5 0.5,0.5 0.33334,0 0.5,0.16667 0.5,0.5 0,0.33333 0.16667,0.5 0.5,0.5 0.33334,0 0.5,0.16667 0.5,0.5 0,0.33333 0.16667,0.5 0.5,0.5 0.33334,0 0.5,0.16667 0.5,0.5 0,0.33333 0.16667,0.5 0.5,0.5 0.33334,0 0.5,0.16667 0.5,0.5 0,0.41667 0.16667,0.5 1,0.5 0.83334,0 1,0.0833 1,0.5 0,0.33333 0.16667,0.5 0.5,0.5 0.33334,0 0.5,0.16667 0.5,0.5 0,0.33333 0.16667,0.5 0.5,0.5 0.33334,0 0.5,0.16667 0.5,0.5 0,0.41667 0.16667,0.5 1,0.5 0.83334,0 1,0.0833 1,0.5 0,0.41667 0.16667,0.5 1,0.5 0.83334,0 1,0.0833 1,0.5 0,0.41667 0.16667,0.5 1,0.5 0.83334,0 1,0.0833 1,0.5 0,0.41667 0.16667,0.5 1,0.5 0.83334,0 1,0.0833 1,0.5 0,0.41667 0.16667,0.5 1,0.5 0.83334,0 1,0.0833 1,0.5 0,0.41667 0.16667,0.5 1,0.5 0.83334,0 1,0.0833 1,0.5 0,0.44445 0.16667,0.5 1.5,0.5 1.33334,0 1.5,0.0556 1.5,0.5 0,0.44445 0.16667,0.5 1.5,0.5 1.33334,0 1.5,0.0556 1.5,0.5 0,0.46667 0.16667,0.5 2.5,0.5 2.33334,0 2.5,0.0333 2.5,0.5 0,0.48148 0.16667,0.5 4.5,0.5 4.33334,0 4.5,0.0185 4.5,0.5 0,0.46667 0.16667,0.5 2.5,0.5 2.33334,0 2.5,-0.0333 2.5,-0.5 z"
       id="path5228"
       inkscape:connector-curvature="0"
       transform="scale(0.26458333)" />
    <path
       id="path5232"
       transform="scale(0.26458333)"
       style="fill:none;fill-opacity:1;fill-rule:nonzero;stroke:none;stroke-width:3.77952766"
       d="m 288.98242,19.347656 c -0.6117,0.0042 -1.06922,0.455109 -1.44922,0.96875 0.77109,-0.293452 1.3465,-0.504908 2.03711,-0.765625 -0.15262,-0.120033 -0.33766,-0.204814 -0.58789,-0.203125 z m 0.86328,2.771485 c -0.67362,0.253046 -1.20053,0.447906 -2.08008,0.783203 -1.40858,0.536981 -2.82223,1.060729 -4.23242,1.59375 -0.17488,0.09813 -0.35837,0.204323 -0.5332,0.300781 5.5e-4,-0.0066 -0.003,-0.08521 0.01,0.07617 -0.004,0.0021 -0.008,0.0038 -0.0117,0.0059 -8.8e-4,-0.01951 -9.2e-4,-0.06343 -0.002,-0.08008 -0.18942,0.104493 -0.38712,0.211091 -0.57812,0.3125 -0.14015,-0.02073 -0.28067,-0.02502 -0.42188,-0.02344 -0.45073,0.173832 -0.90251,0.345426 -1.35156,0.523437 -0.31018,0.222622 -0.61061,0.478128 -0.91601,0.71875 -0.60689,0.220698 -1.21988,0.424529 -1.82422,0.652344 -1.24722,0.470154 -2.49002,0.951733 -3.73047,1.439453 0.006,-0.01418 0.0113,-0.0287 0.0176,-0.04297 -1.99293,0.897991 -3.97642,1.817574 -5.94141,2.773438 -4.94686,2.406389 -9.37211,5.022289 -14.13281,7.736328 -1.39768,0.797684 -4.19717,2.518257 -5.90821,3.117187 -0.63354,0.221783 -1.36567,0.683075 -1.97265,0.396485 -0.3011,-0.142167 -0.54083,-0.388504 -0.74414,-0.669922 -0.0693,0.06972 -0.14323,0.133187 -0.21094,0.205078 -0.30626,0.325183 -0.5071,0.737116 -0.75977,1.105469 0.24333,0.644523 0.16094,1.545971 0.73047,1.933593 0.86755,0.590461 3.85062,-0.743715 4.35157,-0.96289 1.42789,-0.624733 2.81789,-1.333038 4.22656,-2 0.88888,-0.420856 0.83659,-0.406713 1.33984,-0.644531 -0.10249,0.242905 -0.20017,0.48402 -0.29687,0.728515 -0.41977,0.224393 -0.84708,0.444471 -0.95899,0.869141 -0.10248,0.388894 -0.12755,0.70864 -0.11718,0.992187 -0.0533,0.05742 -0.0844,0.112992 -0.0273,0.164063 0.009,0.0081 0.0202,0.01533 0.0293,0.02344 0.11092,0.907921 0.81457,1.232017 1.70898,1.238282 0.0768,0.09284 0.16087,0.181474 0.23242,0.277343 -0.006,-0.01489 -0.0115,-0.03018 -0.0176,-0.04492 0.31328,-0.237443 0.192,-0.143872 0.36523,-0.275391 1.48673,-0.14452 3.15551,-0.69716 4.49805,-1.212891 0.24607,0.85205 0.47095,0.466152 0.78125,-0.0078 0.0425,0.0039 0.0712,0.01208 0.11523,0.01563 0.27401,0.02198 0.46743,-0.162933 0.64258,-0.398438 0.002,0.002 0.003,0.0019 0.006,0.0039 0.12227,0.100892 0.22536,-0.226769 0.35742,-0.314454 0.26531,-0.176169 0.54414,-0.331313 0.82031,-0.490234 0.18548,-0.08616 0.37013,-0.174119 0.55664,-0.257812 0.38748,-0.198318 0.77679,-0.402023 1.16602,-0.59961 0.38952,0.229149 0.77495,0.472546 1.21094,0.570313 0.31636,0.07095 1.42922,-0.65888 1.57617,-0.773438 0.31198,-0.243256 0.58491,-0.531659 0.875,-0.800781 -0.10098,-0.411296 0.38394,-0.797363 0.5625,-1.197266 0.44576,-0.526155 0.85955,-1.083353 1.33789,-1.580078 0.56471,-0.586412 1.18425,-1.114799 1.78516,-1.664062 0.29419,-0.268933 3.21146,-2.89125 3.72265,-3.326172 9.57607,-8.147241 -7.29799,6.42534 6.51953,-5.548828 2.0112,-1.576339 4.83285,-3.831548 7.16602,-5.478516 0.0229,-0.05295 0.0375,-0.108567 0.0586,-0.162109 z m -14.29101,1.046875 c -0.1625,0.09399 -0.31993,0.196612 -0.48438,0.287109 -5.03066,2.768487 -0.35227,0.101478 -4.5957,2.300781 -0.5956,0.308689 -1.16816,0.659769 -1.75195,0.990235 -0.86135,0.350028 -1.6198,0.639016 -2.38282,1.001953 -0.87045,0.947104 -2.30489,2.107947 -3.03125,2.730468 -0.58257,0.446212 -1.16584,0.893155 -1.74804,1.339844 1.79854,-0.981713 3.61547,-1.94729 5.52148,-2.875 2.76532,-1.345962 5.56491,-2.622688 8.38477,-3.851562 0.0202,-0.04187 0.0466,-0.07947 0.0645,-0.123047 0.0159,-0.03895 0.0235,-0.08413 0.0371,-0.125 0.19299,-0.112648 0.32131,-0.263345 0.30664,-0.498047 -0.01,-0.159801 -0.084,-0.294006 -0.18359,-0.416016 -0.009,-0.260008 -0.0623,-0.516586 -0.13672,-0.761718 z m 8.58398,6.582031 c -0.41984,0.364287 0.046,-0.04086 -0.39258,0.339844 0.068,-0.0064 0.1325,-8.75e-4 0.19922,-0.002 0.0673,-0.123264 0.12577,-0.216133 0.19336,-0.337891 z M 246.75,44.132812 c 0.0355,0.209102 0.0309,0.346989 -0.11914,0.251954 0.044,-0.08127 0.0807,-0.166688 0.11914,-0.251954 z"
       inkscape:connector-curvature="0" />
  </g>
</svg>
